<?xml version="1.0" encoding="utf-8"?>
<!-- Generator: Adobe Illustrator 25.2.1, SVG Export Plug-In . SVG Version: 6.00 Build 0)  -->
<svg version="1.1" id="Calque_1" xmlns="http://www.w3.org/2000/svg" xmlns:xlink="http://www.w3.org/1999/xlink" x="0px" y="0px"
	 viewBox="0 0 614.5 554.7" style="enable-background:new 0 0 614.5 554.7;" xml:space="preserve">
<style type="text/css">
	.st0{fill:none;stroke:#EEF0F2;stroke-width:5;stroke-miterlimit:10;}
	.st1{fill:#D864D8;stroke:#EEF0F2;stroke-width:5;stroke-miterlimit:10;}
</style>
<path class="st0" d="M325.2,93.5c-18.5,9-110.7,53.8-133.6,63.2c-1.8,0.7-3.8-0.1-4.5-1.8c-2.5-5.6-7.9-17.5-10.7-23.8
	c-1.1-2.3-0.1-5.1,2.2-6.3c10.5-5.5,38.5-20.2,49-25.9l20-9.4l9.9-4.6l0,0c0,0,40.2-20.1,54.4-21.1c1.5-0.1,2.9,0.7,3.6,2l11.4,22.8
	C327.7,90.5,327,92.7,325.2,93.5z"/>
<path class="st0" d="M247.5,89.6l-20,9.4c0,0-1.2-2.4-3.7-6.5C230.1,88.9,247.5,89.6,247.5,89.6z"/>
<path class="st0" d="M257.4,85l-9.9,4.6c0,0-17.4-0.7-23.7,2.8c-2.2-3.7-5.3-8.6-9.3-14.5c14-11,32.6-10.4,32.6-10.4
	C252.9,76.9,256.6,83.6,257.4,85z"/>
<path class="st0" d="M234.2,48.7c0,0-22.3,0.6-30,15.4c-3.9-5-8.4-10.2-13.3-15.4c11.4-16.2,31.3-15.4,31.3-15.4
	C226.5,38.4,230.5,43.6,234.2,48.7z"/>
<path class="st0" d="M190.9,48.7c-3.8-4-7.9-8.1-12.2-12.1c-2.3-2.2-4.7-4.3-7.2-6.3c-2.7-2.3-4.1-5.8-3.6-9.3
	c1.1-8.4,14.2-22.2,21.8-17.5c6.1,3.9,11.7,8.3,16.9,13.2c5.5,5.2,10.8,10.8,15.6,16.6C222.2,33.3,202.4,32.4,190.9,48.7z"/>
<path class="st0" d="M247.1,67.6c0,0-18.6-0.6-32.6,10.4c-3-4.3-6.4-9-10.3-13.9c7.7-14.9,30-15.4,30-15.4
	C239.2,55.5,243.5,62,247.1,67.6z"/>
<path class="st0" d="M493.4,215c-14,5-24.1-25.4-44-50c-30-37-18-37-18-37C493.4,155,493.4,215,493.4,215z"/>
<path class="st0" d="M155.7,395.7c-0.9-14.3-2.7-35.6-5.1-40.4c-69.7,17.7-71.6-15.3-71.4-20.8c0-0.7,0-1.3,0-2
	c-1.1-32.1,60.4-29.6,61.4-29.6l0,0c2.2-4.2,6.3-7.2,11-7.9h-16.4l-12.4,7.8c0,0-28.3-102.8-92.3-76.8c0,0-32.3,12.3-25,63.6
	c5.7,19.1,19.5,35,41.1,38.4l6,27c0,0-34,43.3,17.9,86.1c12.3,10.3,28.6,14.2,44.2,10.7c10.5-2.3,20-7.8,27.3-15.7
	C151.8,425.1,156.8,410.5,155.7,395.7z M76.9,282.7L76.9,282.7c-0.4,1.7-1.1,3.4-2,5c-5.8,11.9-14.1,11.4-20.7,8.3
	c-7.5-3.7-12.9-10.7-14.6-19c-4.8-22,15.3-24.9,15.3-24.9c7.9-2.7,17.4,4.3,21.2,15.6C77.8,272.5,78.1,277.7,76.9,282.7z
	 M103.4,416.5c-7.8,2.6-17.2-4.4-20.9-15.7c-1.1-3.3-1.6-6.7-1.6-10.2c0-0.2,0-0.4,0-0.6c0-0.6,0.1-1.2,0.1-1.7c0-0.3,0.1-0.6,0.1-1
	s0.1-0.8,0.2-1.2s0.2-0.9,0.4-1.3l0,0c0.1-0.2,0.1-0.4,0.2-0.6c0.2-0.6,0.4-1.1,0.6-1.7l0.2-0.5c0.1-0.2,0.2-0.3,0.3-0.5l0.2-0.3
	c0.2-0.4,0.5-0.8,0.8-1.2c0.1-0.2,0.2-0.3,0.4-0.5c0.3-0.4,0.7-0.8,1.1-1.2c0.1-0.1,0.3-0.3,0.4-0.4c0.2-0.2,0.5-0.4,0.7-0.6
	c0.3-0.3,0.7-0.5,1-0.7l0.5-0.3c0.2-0.1,0.3-0.2,0.5-0.2l0.5-0.2l0.4-0.1l0.1,0h0.1c7.8-2.6,17.1,4.4,20.9,15.7
	S111.2,413.9,103.4,416.5L103.4,416.5z"/>
<path class="st0" d="M76.9,282.7L76.9,282.7c-0.4,1.7-1.1,3.4-2,5c-5.8,11.9-14.1,11.4-20.7,8.3c-7.5-3.7-12.9-10.7-14.6-19
	c-4.8-22,15.3-24.9,15.3-24.9c7.9-2.7,17.4,4.3,21.2,15.6C77.8,272.5,78.1,277.7,76.9,282.7z"/>
<path class="st0" d="M103.4,416.5c-7.8,2.6-17.2-4.4-20.9-15.7c-1.1-3.3-1.6-6.7-1.5-10.2c0-0.2,0-0.4,0-0.6c0-0.6,0.1-1.2,0.1-1.7
	c0-0.3,0.1-0.6,0.1-1s0.1-0.8,0.2-1.2s0.2-0.9,0.4-1.3l0,0c0.1-0.2,0.1-0.4,0.2-0.6c0.2-0.6,0.4-1.1,0.6-1.7l0.2-0.5
	c0.1-0.2,0.2-0.3,0.3-0.5l0.2-0.3c0.2-0.4,0.5-0.8,0.8-1.2c0.1-0.2,0.2-0.3,0.4-0.5c0.3-0.4,0.7-0.8,1.1-1.2
	c0.1-0.1,0.3-0.3,0.4-0.4c0.2-0.2,0.5-0.4,0.7-0.6c0.3-0.3,0.7-0.5,1-0.7l0.5-0.3c0.2-0.1,0.3-0.2,0.5-0.2l0.5-0.2l0.4-0.1l0.1,0
	h0.1c7.8-2.6,17.1,4.4,20.9,15.7S111.2,413.9,103.4,416.5z"/>
<path class="st0" d="M135.1,295l-12.4,7.8c0,0-28.3-102.8-92.3-76.8c0,0-32.3,12.3-25,63.6C-4.1,257.3,9.5,216,48.5,211
	C110,203,135.1,295,135.1,295z"/>
<path class="st0" d="M150.5,355.2c-69.7,17.7-71.6-15.3-71.4-20.8c0-0.7,0-1.3,0-2c-1.1-32.1,60.4-29.6,61.4-29.6
	c-3.4,6.3-4.4,17.6,3.5,37.8C145.7,345,147.9,349.9,150.5,355.2z"/>
<path class="st0" d="M166.4,347c-4.7,5.8-15.8,8.2-15.8,8.2c-2.7-5.3-4.8-10.2-6.6-14.6l18.1-3C163.4,340.8,164.8,344,166.4,347z"/>
<path class="st0" d="M166.4,347L166.4,347"/>
<path class="st0" d="M76.9,282.7L76.9,282.7c-0.4,1.7-1.1,3.4-2,5c-1.4,2.4-3.7,4.3-6.3,5.2c-7.9,2.6-17.4-4.3-21.2-15.6
	s-0.4-22.6,7.5-25.2s17.4,4.3,21.2,15.6C77.8,272.5,78.1,277.7,76.9,282.7z"/>
<path class="st0" d="M103.4,416.5c-7.8,2.6-17.2-4.4-20.9-15.7c-1.1-3.3-1.6-6.7-1.5-10.2c0-0.2,0-0.4,0-0.6c0-0.6,0.1-1.2,0.1-1.7
	c0-0.3,0.1-0.6,0.1-1s0.1-0.8,0.2-1.2s0.2-0.9,0.4-1.3l0,0c0.1-0.2,0.1-0.4,0.2-0.6c0.2-0.6,0.4-1.1,0.6-1.7l0.2-0.5
	c0.1-0.2,0.2-0.3,0.3-0.5l0.2-0.3c0.2-0.4,0.5-0.8,0.8-1.2c0.1-0.2,0.2-0.3,0.4-0.5c0.3-0.4,0.7-0.8,1.1-1.2
	c0.1-0.1,0.3-0.3,0.4-0.4c0.2-0.2,0.5-0.4,0.7-0.6c0.3-0.3,0.7-0.5,1-0.7l0.5-0.3c0.2-0.1,0.3-0.2,0.5-0.2l0.5-0.2l0.4-0.1l0.1,0
	h0.1c7.8-2.6,17.1,4.4,20.9,15.7S111.2,413.9,103.4,416.5z"/>
<path class="st0" d="M76.9,282.7c-0.6,1.7-1.2,3.3-2,5"/>
<path class="st0" d="M162,337.6l-18.1,3c-7.9-20.2-6.9-31.5-3.5-37.8l0,0c2.2-4.2,6.3-7.2,11-7.9c0.4,4.1,0.9,8.2,1.6,12.2
	C155,317.6,158,327.8,162,337.6z"/>
<path class="st0" d="M611.5,262.3c-7.5,26.5-39.1,112.7-59.1,117.7s-33-33-33-33s17.9-20.2,13-29c-9.1-16.3-4.2-36.5,0.3-48.5
	c2.7-7.1,7.5-13.3,13.9-17.5c29-19.4,50.5-9.7,60.6-2.4C611.2,252.5,612.9,257.6,611.5,262.3z"/>
<line class="st0" x1="519.4" y1="347" x2="491.1" y2="331.8"/>
<line class="st0" x1="153.9" y1="307" x2="138.4" y2="310"/>
<line class="st0" x1="532.4" y1="318" x2="498.9" y2="302.8"/>
<path class="st1" d="M495.8,224.5l-2.4-9.5c-14,5-24.1-25.4-44-50c-30-37-18-37-18-37s-48.5-42.8-106.3-34.4
	c-18.5,9-110.7,53.8-133.6,63.2c0,0-48.2,49.2-40.2,138.2c0.4,4.1,0.9,8.2,1.6,12.2c1.9,10.5,4.9,20.7,9,30.5
	c1.3,3.2,2.8,6.4,4.3,9.5c27.3,54.8,81.1,83.1,81.1,83.1s16,7.9,40.9,12.8c35.7,7.1,89.8,8.1,141.1-29c28-20.1,49.3-48.1,61-80.5
	l0.6-1.6C503.2,297.2,504.8,259.9,495.8,224.5z M422.4,261.5c-12.6,6.6-34.3-9.8-48.5-36.7s-15.6-54.1-3-60.8s34.3,9.8,48.5,36.7
	S434.9,254.9,422.4,261.5L422.4,261.5z"/>
<path class="st0" d="M422.4,261.5c-12.6,6.6-34.3-9.8-48.5-36.7s-15.6-54.1-3-60.8s34.3,9.8,48.5,36.7S434.9,254.9,422.4,261.5z"/>
<path class="st0" d="M265.3,461.9c-5.1,2.2-11.3,4.6-18.8,7.1c-2.3,0.8-4.8,0.7-7-0.3c-6.1-2.7-16.3-10.4-9.9-31.2
	c0.5-1.6,1.8-2.8,3.3-3.2l6.3-1.8l8.3-2.4c0,0,16,7.9,40.9,12.8C288.4,442.9,291.8,450.4,265.3,461.9z"/>
<path class="st0" d="M304.4,524c-11,42-56,28-76.9,15.6S189.4,510,187.4,457s51.8-24.5,51.8-24.5l-6.2,1.8c-1.6,0.4-2.8,1.7-3.3,3.2
	c-6.4,20.8,3.8,28.5,9.9,31.2c2.2,1,4.7,1.1,7,0.3c7.5-2.5,13.7-4.9,18.8-7.1C284.1,465.9,315.4,482,304.4,524z"/>
<path class="st0" d="M5.4,290c0-0.1,0-0.2,0-0.4"/>
<path class="st0" d="M206.6,16.7c0,0-16.6,0.6-27.8,19.9"/>
<path class="st0" d="M111.8,405.2c0.1,9.3-18.9,31.3-34.9,5.3c-15.4-25,10-33.9,12.6-34.7"/>
</svg>
