<svg id="Calque_1" data-name="Calque 1" xmlns="http://www.w3.org/2000/svg" viewBox="0 0 850.39 850.39"><defs><style>.cls-1{fill:none;}.cls-1,.cls-2{stroke:#eef0f2;stroke-miterlimit:10;stroke-width:5px;}.cls-2{fill:#d864d8;}</style></defs><path class="cls-1" d="M445.24,236.27c-18.54,9-110.75,53.82-133.57,63.18a3.52,3.52,0,0,1-4.55-1.82c-2.52-5.58-7.88-17.47-10.74-23.79a4.83,4.83,0,0,1,2.16-6.28c10.49-5.51,38.49-20.24,49-25.88l20-9.35,9.93-4.63,0,0s40.16-20.08,54.4-21.08a3.66,3.66,0,0,1,3.56,2l11.42,22.83A3.6,3.6,0,0,1,445.24,236.27Z"/><path class="cls-1" d="M367.53,232.33l-20,9.35s-1.24-2.42-3.67-6.51C350.17,231.67,367.53,232.33,367.53,232.33Z"/><path class="cls-1" d="M377.46,227.7l-9.93,4.63s-17.36-.66-23.7,2.84c-2.16-3.66-5.28-8.65-9.3-14.46,14-11,32.58-10.36,32.58-10.36C373,219.61,376.69,226.36,377.46,227.7Z"/><path class="cls-1" d="M354.28,191.42s-22.32.56-30,15.41c-3.94-5-8.37-10.17-13.27-15.41C322.42,175.17,342.27,176,342.27,176,346.57,181.14,350.6,186.36,354.28,191.42Z"/><path class="cls-1" d="M311,191.42c-3.78-4-7.85-8.13-12.2-12.11q-3.5-3.23-7.22-6.34a10.35,10.35,0,0,1-3.64-9.33c1.14-8.4,14.22-22.16,21.78-17.46a110.6,110.6,0,0,1,16.93,13.23A188.5,188.5,0,0,1,342.27,176S322.42,175.17,311,191.42Z"/><path class="cls-1" d="M367.11,210.35s-18.56-.61-32.58,10.36c-2.95-4.26-6.38-9-10.3-13.88,7.73-14.85,30-15.41,30-15.41C359.23,198.22,363.57,204.75,367.11,210.35Z"/><path class="cls-1" d="M613.5,357.68c-14,5-24.08-25.44-44-50-30-37-18-37-18-37C613.5,297.68,613.5,357.68,613.5,357.68Z"/><path class="cls-1" d="M275.73,538.38c-.93-14.29-2.7-35.59-5.13-40.44-69.67,17.68-71.56-15.3-71.4-20.83,0-.68,0-1.34,0-2-1.08-32.1,60.43-29.6,61.35-29.56h0a14.82,14.82,0,0,1,11-7.85H255.2l-12.36,7.79S214.5,342.68,150.5,368.68c0,0-32.35,12.26-25,63.64,5.67,19.1,19.49,35,41.05,38.36l6,27s-34,43.33,17.87,86.14a51.48,51.48,0,0,0,44.25,10.74,52.35,52.35,0,0,0,27.26-15.73A54.55,54.55,0,0,0,275.73,538.38ZM197,425.38s0,0,0,0a18.25,18.25,0,0,1-2,4.95c-5.82,11.85-14.11,11.43-20.72,8.32a27.06,27.06,0,0,1-14.59-18.95c-4.81-22,15.3-24.92,15.3-24.92,7.91-2.66,17.4,4.32,21.18,15.59A27,27,0,0,1,197,425.38Zm26.49,133.83c-7.79,2.61-17.16-4.4-20.94-15.67A29.2,29.2,0,0,1,201,533.33c0-.19,0-.38,0-.57,0-.59.08-1.17.15-1.73,0-.33.09-.64.14-1s.15-.79.24-1.17.22-.91.35-1.35h0c.06-.2.12-.39.19-.58a16.73,16.73,0,0,1,.65-1.68l.24-.51c.09-.18.17-.35.27-.52l.18-.34c.24-.42.5-.82.77-1.2a6,6,0,0,1,.38-.5,11.08,11.08,0,0,1,1.06-1.2c.13-.14.27-.26.4-.38a8.3,8.3,0,0,1,.73-.6,10,10,0,0,1,1-.69l.47-.26a4.44,4.44,0,0,1,.49-.24l.5-.22.36-.14.15-.05.06,0c7.78-2.61,17.15,4.41,20.93,15.67S231.26,556.6,223.48,559.21Z"/><path class="cls-1" d="M197,425.38s0,0,0,0a18.25,18.25,0,0,1-2,4.95c-5.82,11.85-14.11,11.43-20.72,8.32a27.06,27.06,0,0,1-14.59-18.95c-4.81-22,15.3-24.92,15.3-24.92,7.91-2.66,17.4,4.32,21.18,15.59A27,27,0,0,1,197,425.38Z"/><path class="cls-1" d="M223.48,559.21c-7.79,2.61-17.16-4.4-20.94-15.67A29.2,29.2,0,0,1,201,533.33c0-.19,0-.38,0-.57,0-.59.08-1.17.15-1.73,0-.33.09-.64.14-1s.15-.79.24-1.17.22-.91.35-1.35h0c.06-.2.12-.39.19-.58a16.73,16.73,0,0,1,.65-1.68l.24-.51c.09-.18.17-.35.27-.52l.18-.34c.24-.42.5-.82.77-1.2.12-.17.25-.34.38-.5a11.08,11.08,0,0,1,1.06-1.2c.13-.13.26-.26.4-.38a8.3,8.3,0,0,1,.73-.6,10,10,0,0,1,1-.69l.47-.26a4.44,4.44,0,0,1,.49-.24l.5-.22.36-.14.15-.05.06,0c7.78-2.61,17.15,4.41,20.93,15.67S231.26,556.6,223.48,559.21Z"/><path class="cls-1" d="M255.2,437.68l-12.36,7.79S214.5,342.68,150.5,368.68c0,0-32.35,12.26-25,63.64-9.59-32.27,4.1-73.61,43.05-78.64C230.06,345.74,255.2,437.68,255.2,437.68Z"/><path class="cls-1" d="M270.6,497.94c-69.67,17.68-71.56-15.3-71.4-20.83,0-.68,0-1.34,0-2-1.08-32.1,60.43-29.6,61.35-29.56-3.38,6.29-4.42,17.57,3.5,37.79C265.77,487.75,267.93,492.61,270.6,497.94Z"/><path class="cls-1" d="M286.42,489.77c-4.73,5.75-15.82,8.17-15.82,8.17-2.67-5.33-4.83-10.19-6.57-14.62l18.07-3C283.44,483.55,284.89,486.7,286.42,489.77Z"/><path class="cls-1" d="M286.5,489.68l-.08.09"/><path class="cls-1" d="M197,425.38s0,0,0,0a18.25,18.25,0,0,1-2,4.95,11.92,11.92,0,0,1-6.32,5.25c-7.92,2.65-17.4-4.33-21.18-15.59s-.43-22.56,7.49-25.21,17.4,4.32,21.18,15.59A27,27,0,0,1,197,425.38Z"/><path class="cls-1" d="M223.48,559.21c-7.79,2.61-17.16-4.4-20.94-15.67A29.2,29.2,0,0,1,201,533.33c0-.19,0-.38,0-.57,0-.59.08-1.17.15-1.73,0-.33.09-.64.14-1s.15-.79.24-1.17.22-.91.35-1.35h0c.06-.2.12-.39.19-.58a16.73,16.73,0,0,1,.65-1.68l.24-.51c.09-.18.17-.35.27-.52l.18-.34c.24-.42.5-.82.77-1.2.12-.17.25-.34.38-.5a11.08,11.08,0,0,1,1.06-1.2c.13-.13.26-.26.4-.38a8.3,8.3,0,0,1,.73-.6,10,10,0,0,1,1-.69l.47-.26a4.44,4.44,0,0,1,.49-.24l.5-.22.36-.14.15-.05.06,0c7.78-2.61,17.15,4.41,20.93,15.67S231.26,556.6,223.48,559.21Z"/><path class="cls-1" d="M197,425.41a41.22,41.22,0,0,1-2,4.95"/><path class="cls-1" d="M282.1,480.31l-18.07,3c-7.92-20.22-6.88-31.5-3.5-37.79h0a14.82,14.82,0,0,1,11-7.85q.56,6.22,1.63,12.17A144.26,144.26,0,0,0,282.1,480.31Z"/><path class="cls-1" d="M731.58,405c-7.53,26.51-39.08,112.67-59.08,117.67s-33-33-33-33,17.91-20.23,13-29c-9.13-16.31-4.22-36.45.3-48.48a36.56,36.56,0,0,1,13.89-17.5c28.95-19.44,50.5-9.68,60.56-2.39A11.73,11.73,0,0,1,731.58,405Z"/><line class="cls-1" x1="639.5" y1="489.68" x2="611.11" y2="474.51"/><line class="cls-1" x1="274" y1="449.68" x2="258.5" y2="452.68"/><line class="cls-1" x1="652.5" y1="460.68" x2="618.93" y2="445.48"/><path class="cls-2" d="M615.88,367.18l-2.38-9.5c-14,5-24.08-25.44-44-50-30-37-18-37-18-37S503,227.86,445.24,236.27c-18.54,9-110.75,53.82-133.57,63.18,0,0-48.17,49.23-40.17,138.23q.56,6.22,1.63,12.17a144.26,144.26,0,0,0,9,30.46c1.34,3.24,2.79,6.39,4.32,9.46,27.3,54.84,81.11,83.05,81.11,83.05s16,7.9,40.91,12.85c35.74,7.11,89.79,8.14,141.06-29a170.45,170.45,0,0,0,61-80.53l.6-1.64A185.74,185.74,0,0,0,615.88,367.18Zm-73.4,37c-12.56,6.64-34.28-9.8-48.51-36.72s-15.6-54.12-3.05-60.76,34.28,9.8,48.52,36.71S555,397.58,542.48,404.22Z"/><path class="cls-1" d="M542.48,404.22c-12.56,6.64-34.28-9.8-48.51-36.72s-15.6-54.12-3.05-60.76,34.28,9.8,48.52,36.71S555,397.58,542.48,404.22Z"/><path class="cls-1" d="M385.34,604.63c-5.09,2.21-11.29,4.58-18.83,7.07a9.83,9.83,0,0,1-7-.3c-6.07-2.66-16.27-10.36-9.85-31.2A4.88,4.88,0,0,1,353,577l6.26-1.79,8.28-2.36s16,7.9,40.91,12.85C408.44,585.67,411.85,593.1,385.34,604.63Z"/><path class="cls-1" d="M424.5,666.68c-11,42-56,28-76.89,15.58s-38.11-29.58-40.11-82.58,51.75-24.5,51.75-24.5L353,577a4.88,4.88,0,0,0-3.33,3.23c-6.42,20.84,3.78,28.54,9.85,31.2a9.83,9.83,0,0,0,7,.3c7.54-2.49,13.74-4.86,18.83-7.07C404.18,608.58,435.5,624.68,424.5,666.68Z"/><path class="cls-1" d="M125.5,432.68c0-.12,0-.24,0-.36"/><path class="cls-1" d="M326.61,159.41S310,160,298.76,179.32"/><path class="cls-1" d="M231.9,547.92c.1,9.26-18.9,31.26-34.9,5.26-15.38-25,10-33.88,12.58-34.7"/></svg>