<svg id="Layer_1" data-name="Layer 1" xmlns="http://www.w3.org/2000/svg" viewBox="0 0 159.5 162.5"><defs><style>.cls-1{fill:#d864d8;}.cls-1,.cls-2{stroke:#eef0f2;stroke-miterlimit:10;}.cls-2{fill:none;}.cls-3{fill:#eef0f2;}</style></defs><path class="cls-1" d="M136.67,64.83a48.62,48.62,0,0,1,4.89-21.44c-13.2-18.7-35.1-32.22-61.56-32.22S32,24.54,19,43.08a48.53,48.53,0,0,1,5,21.75c0,14.85-6.45,28-16.31,35.86,4.24,13.43,14,23.23,27.68,29.48a30.35,30.35,0,0,1-.65-9c.34-4.78,17.74-18,45.59-18,28.72,0,45.45,14.49,45.58,17.6a35,35,0,0,1-.77,9.25c13.67-6.27,23.43-16.08,27.66-29.49C143,92.63,136.67,79.58,136.67,64.83ZM80.28,86.17a36,36,0,1,1,36-36A36,36,0,0,1,80.28,86.17Z"/><path class="cls-2" d="M125.12,130c-3.63,16.13-19.4,25.15-43.79,25.15s-42.22-8.86-46-25a30.35,30.35,0,0,1-.65-9c.34-4.78,17.74-18,45.59-18,28.72,0,45.45,14.49,45.58,17.6A35,35,0,0,1,125.12,130Z"/><circle class="cls-2" cx="80.28" cy="50.17" r="36"/><path class="cls-2" d="M24,64.83c0,14.85-6.45,28-16.31,35.86A53.52,53.52,0,0,1,5.33,84.5,72.47,72.47,0,0,1,19,43.08,48.53,48.53,0,0,1,24,64.83Z"/><path class="cls-2" d="M155.13,84.5a52.87,52.87,0,0,1-2.35,16c-9.75-7.9-16.11-21-16.11-35.7a48.62,48.62,0,0,1,4.89-21.44C150.22,55.65,155.13,70.13,155.13,84.5Z"/><rect class="cls-2" x="91.54" y="111.5" width="7.85" height="24" rx="3.93"/><rect class="cls-2" x="61.2" y="111.5" width="7.85" height="24" rx="3.93"/><rect class="cls-3" x="61.2" y="124.5" width="7.85" height="11" rx="3.03"/><rect class="cls-3" x="91.54" y="124.5" width="7.85" height="11" rx="3.03"/></svg>