<svg id="Calque_1" data-name="Calque 1" xmlns="http://www.w3.org/2000/svg" viewBox="0 0 850.39 850.39"><defs><style>.cls-1{fill:#eef0f2;}</style></defs><path class="cls-1" d="M181.46,371.94V344.23a5.23,5.23,0,0,1,5.23-5.23h43.52a5.23,5.23,0,0,1,5.23,5.23v27.65a5.23,5.23,0,0,0,5.23,5.23H288a5.23,5.23,0,0,1,5.23,5.23v31a5.23,5.23,0,0,0,5.23,5.23h39.76a5.23,5.23,0,0,1,5.23,5.23V450.6a5.23,5.23,0,0,0,5.23,5.23h41.91a5.24,5.24,0,0,1,5.23,5.24v31.44a5.23,5.23,0,0,0,5.23,5.23h45.33a5.24,5.24,0,0,0,5.24-5.23V463.63a5.23,5.23,0,0,1,5.23-5.23h39.54a5.23,5.23,0,0,0,5.23-5.23V423.6a5.23,5.23,0,0,1,5.23-5.23h49.38a5.23,5.23,0,0,0,5.23-5.23v-28a5.23,5.23,0,0,1,5.23-5.23h45.19a5.23,5.23,0,0,0,5.23-5.23V344.23a5.23,5.23,0,0,1,5.23-5.23h42a5.23,5.23,0,0,1,5.23,5.23V376.5a5.23,5.23,0,0,0,5.23,5.23h40A5.23,5.23,0,0,1,720,387l-1,37.34a5.23,5.23,0,0,1-5.23,5.23h-38.5a5.23,5.23,0,0,0-5.23,5.23v29.75a5.23,5.23,0,0,1-5.23,5.23H623.18a5.24,5.24,0,0,0-5.24,5.23v27a5.23,5.23,0,0,1-5.23,5.23H569.13a5.23,5.23,0,0,0-5.23,5.23V541.7a5.24,5.24,0,0,1-5.24,5.23H516.82a5.23,5.23,0,0,0-5.23,5.23v28.36a5.23,5.23,0,0,1-5.23,5.23H462a5.24,5.24,0,0,0-5.23,5.24v29.33a5.24,5.24,0,0,1-5.23,5.24H401.75a5.24,5.24,0,0,1-5.23-5.24V591.91a5.23,5.23,0,0,0-5.23-5.23h-39.9a5.23,5.23,0,0,1-5.23-5.23V552.16a5.23,5.23,0,0,0-5.23-5.23H297.41a5.23,5.23,0,0,1-5.23-5.23V512.41a5.23,5.23,0,0,0-5.23-5.23H246a5.24,5.24,0,0,1-5.24-5.23V475a5.23,5.23,0,0,0-5.23-5.23H185.69a5.23,5.23,0,0,1-5.23-5.23V434.35a5.23,5.23,0,0,0-5.23-5.23h-38.5a5.23,5.23,0,0,1-5.23-5.23l1-41a5.22,5.22,0,0,1,5.17-5.23l38.62-.49A5.23,5.23,0,0,0,181.46,371.94Z"/></svg>