<svg id="Layer_2" data-name="Layer 2" xmlns="http://www.w3.org/2000/svg" viewBox="0 0 504.97 743.43"><defs><style>.cls-1,.cls-2,.cls-4,.cls-5,.cls-6{fill:none;}.cls-1,.cls-2,.cls-3,.cls-5,.cls-6{stroke:#eef0f2;}.cls-1,.cls-3,.cls-6{stroke-linecap:round;stroke-linejoin:round;}.cls-1,.cls-2,.cls-3{stroke-width:4px;}.cls-2,.cls-5{stroke-miterlimit:10;}.cls-3{fill:#8080ff;}.cls-6{stroke-width:5px;}</style></defs><path class="cls-1" d="M343.31,158.63q-3.49-4.73-7-10.48a35.39,35.39,0,0,0,12.26,11.18,51.74,51.74,0,0,0,8.63,3.88c9,3.14,17.3,3.62,18.94,4.09,4.69,1.34,10.36.92,17.53-.49,13.11-2.58,19.65-13.3,19.32-39.45,0-1.7-6.2-20.9-25.61-29.53A47.73,47.73,0,0,0,373,94.09a43.53,43.53,0,0,0-39.26,16c-13.35-16.2-41.86-25.27-62.58-18.62-21.06,6.76-35.9,28.3-28.83,48.91,5.55,22.41,30.68,33.33,53.34,28.69,17.65-3.62,30-5.79,40.69-21-12.7,19.57-32.83,39.58-55.14,38.3C253.68,184.86,229.55,164,223,135.13A60.53,60.53,0,0,1,331.72,96.06c11-15.06,29-23.11,46.72-20.68a53,53,0,0,1,17.17,4.82c23.1,11.13,29.93,36,30.47,38.07,7.09,27.42-6.4,62-28.49,68.18-8.41,2.35-15.91-.07-21.49-1.77a47.86,47.86,0,0,1-11.36-5.19"/><path class="cls-2" d="M375.11,94.36a87.25,87.25,0,0,1,8.18,31.73l4.6,25a61.32,61.32,0,0,1,11.95,13.61"/><path class="cls-2" d="M407.28,181.6a53.88,53.88,0,0,1,1.54,9.34,57,57,0,0,1-8.17,33.7c-10.79,17.71-27.7,23.61-32.17,25A113,113,0,0,1,325.72,267a115,115,0,0,1-40,0,132.65,132.65,0,0,1-51.58-19.91C220.11,237.92,209,230.68,202.52,216c-6.81-15.44-4.77-30.53-4.08-35.24a69.18,69.18,0,0,1,7.15-21.95,16.16,16.16,0,0,1-3.58-4.6c-3.12-6.06-2.09-13.94,2.05-19.4a19.27,19.27,0,0,1,9.7-6.64c.63-2.82,4.08-60.26,58.21-71.49,24.65-5.12,49.13-.15,56.68,2,8.82,2.56,19.38,5.62,29.62,14,1.32,1.08,2.56,2.2,3.74,3.34"/><path class="cls-2" d="M364.91,177.25c0,10.3-10.05,18.64-22.46,18.64S320,187.55,320,177.25s6.66-18.69,19.07-18.69S364.91,167,364.91,177.25Z"/><ellipse class="cls-2" cx="302.19" cy="138.96" rx="7.57" ry="11.49"/><ellipse class="cls-2" cx="355.47" cy="138.96" rx="7.57" ry="11.49"/><line class="cls-1" x1="342.45" y1="323.44" x2="348.62" y2="333.9"/><path class="cls-2" d="M198.2,190.41c-6.57,1.92-45.87,14.06-65.89,54.64-24,48.72,1,95.29,3.33,99.41"/><line class="cls-2" x1="223.58" y1="129.68" x2="214.34" y2="128.27"/><path class="cls-2" d="M227.66,147.72c-10.74,2.87-13.32,2.87-21.49,11.19"/><path class="cls-1" d="M267.89,57.9a62.82,62.82,0,0,0-26-16.08,63.54,63.54,0,0,0-37.79,0"/><path class="cls-1" d="M272.55,56.78a87.36,87.36,0,0,0-21.44-39.47A84.74,84.74,0,0,0,232.22,2.5"/><path class="cls-1" d="M277.66,54.54a28.14,28.14,0,0,1,30.13-38.76"/><path class="cls-1" d="M401.23,224.78c49.2-26,86.65-69.26,100.09-97.17,4.07-8.45-3.4-38.81-11.74-47.49-4.09-5.28-15.89-15-33.7-18.39a62.35,62.35,0,0,0-23,0c-5.77-6.56-13.3-9.44-18.9-7.19a11,11,0,0,0-4.43,3.36c-.77-.45-10.63-2-13.44-1.12a10.18,10.18,0,0,0-5.62,5.46,10.9,10.9,0,0,0,0,8.17c2.42,4.18,3.14,5,19.06,19.25a22.77,22.77,0,0,0,8.95,5.12,29.23,29.23,0,0,0,16.68-.28"/><path class="cls-2" d="M386.24,76.79a11.77,11.77,0,0,1,4.27-6.38"/><path class="cls-1" d="M443.45,87.27a49.64,49.64,0,0,1-20.35-5.11c-5.59-2.79-11.15-5.56-13.53-11.75a18.87,18.87,0,0,1,0-12.51"/><path class="cls-1" d="M425.75,110.41c-.66-.16-1.38-.31-2.15-.46"/><path class="cls-1" d="M428.4,138.6l2.45.07a109.31,109.31,0,0,0,39.49-6.47"/><path class="cls-1" d="M404.07,110.05a30.23,30.23,0,0,0-4.88,1.73c-5.51,2.52-6.52,5.15-6.81,6.12-1.13,3.88,1.5,7.51,2.73,9.2,4,5.53,11.16,8.38,18.24,9.87"/><line class="cls-1" x1="435.96" y1="138.67" x2="423.1" y2="161.73"/><path class="cls-1" d="M301.15,207.78c2.49,2.19,16.36,14,36.43,12.25a48.63,48.63,0,0,0,27.91-12.25"/><line class="cls-2" x1="385.23" y1="133.63" x2="398.77" y2="130.84"/><line class="cls-1" x1="388.47" y1="151.25" x2="412.4" y2="145.12"/><line class="cls-2" x1="227.66" y1="242.55" x2="179.1" y2="354.08"/><path class="cls-1" d="M135,360.54V343.23c4.54-22.33,12.12-47.9,23.46-78,9.35-24.83,26.18-53.42,38.53-74.44-13.76,8.57-39.16,35.86-52.57,68.06a187.22,187.22,0,0,0-14.75,72.3"/><path class="cls-1" d="M361.74,254.32c2.38,28.92-1.48,44.28-5.69,53a71,71,0,0,0-7.58,26,66.7,66.7,0,0,0,0,11.07"/><path class="cls-1" d="M253.49,257.42C261.21,275,278,285.36,294,283.35c14.05-1.76,22.48-12.38,24.49-15.06"/><path class="cls-2" d="M343,262.78c1.57,5.48,2.69,13.07,0,20.82-7.11,20.41-35.66,27.48-54.13,26.81-25.13-.9-42.48-16.54-50.56-23.81A100.88,100.88,0,0,1,219,262.78"/><path class="cls-1" d="M197,313.07l3.6,67.82-14.81,40.85"/><path class="cls-1" d="M253.49,372.54l-10.55-34.06-8.68-28c.82-7.17,2.85-10.76-3.07-19.45-7-10.29-19.38-10.1-20.24-10.07h0"/><path class="cls-2" d="M340,289.72A35.86,35.86,0,0,1,331.28,337c-7.36,5.87-14.62,7-26,8.9a116.27,116.27,0,0,1-34.21,0,127,127,0,0,1-28.09-7.39"/><path class="cls-3" d="M444.13,457c2.58-38.66-14.38-75.53-44.94-95.49-39.54-25.83-95.88-19.43-133.27,17.87-3.47-2.08-7.63-4.42-12.43-6.81l9.37,7.35.07,0c14.45,8.84,22.46,15.72,26.73,20.95h0a12,12,0,0,1,4.32,7.95c.87,4.15-1.51,5.92-1.51,5.92a13.48,13.48,0,0,1-3.07,3.4,14.26,14.26,0,0,1-8.15,3c-12.95,2.25-26.08-10.55-26.08-10.55a181.41,181.41,0,0,1,8.64,25.7c.72,3,.68,3.78,2,6.59a13.69,13.69,0,0,1,1.47,6.88c.16,3.15-4.19,6.12-4.41,6.11h0a13.42,13.42,0,0,1-2.59,1.56c-4.58,2-4,2.68-6.19,2-6.66-2-11.75-8.94-15.28-15.79q-.17-.29-.3-.57c-2.91-5.53-9.53-12.69-10-14.3,1.73,6.47,2.25,15.15,2.34,22.18l.83,6.48a12.9,12.9,0,0,1-1.06,5.87c-1.34,3.13-3.89,8.67-7.16,9.9A12.7,12.7,0,0,1,214,473c-4-1-3.62-37.63-5.25-42.38,0,.43-8,29.77-8.08,30.16v0l-.51,5.39c-.36.48-.27,2.63-1.76,3.73l0,0h0a12.88,12.88,0,0,1-5.19,2.35,13.08,13.08,0,0,1-3.46.24c-22.07,1.72-4.91-47.15-4-50.61,0,0,0-.06,0-.08s0-.05,0-.07a.18.18,0,0,0,0-.05l13.47-44.48V355.91c-1.57-.21-3.17-.4-4.79-.56-4.71-.48-9.85-1-15.33-1.27-13-.63-28,.18-44.13,6.46-.77.3-1.55.61-2.33.94-34.81,14.62-51,45.49-56.17,56.68C27.3,441-2.11,491.83,3.09,543.78c4.59,45.84,35.45,85.75,79.51,103.15,1.14,4.71,16.82,64.68,77.48,86.8,59.44,21.69,109.18-12.26,113.5-15.32,4.46,2.09,60.82,27.21,112.85-5.1,36.17-22.47,47.42-58.52,50-67.92,36.75-19.22,59.75-57.12,59.23-97.78C495,490,447.51,459.09,444.13,457ZM305.24,506C299,506,294,497.53,294,487.1s5-18.9,11.24-18.9,11.23,8.46,11.23,18.9S311.44,506,305.24,506Zm84.51-3.06c-6.21,0-11.24-8.46-11.24-18.9s5-18.89,11.24-18.89S401,473.6,401,484,396,502.93,389.75,502.93Z"/><path class="cls-4" d="M294,408.84c-.43-2-1.64-4.67-4.32-7.95"/><path class="cls-4" d="M292.48,414.76c-3.75,3.88-7.55,5.8-11.22,6.43"/><path class="cls-4" d="M266.84,440.34a33.3,33.3,0,0,1,.47,9.47"/><path class="cls-4" d="M233.83,441.69c5.32,9.87,14.74,20.57,29.06,14.23"/><path class="cls-5" d="M228.44,428.5a2.69,2.69,0,0,1,.09.32,2.69,2.69,0,0,0-.09-.32l0-.13a.32.32,0,0,0,0-.06c-.44-1.4-.68-2.3-.73-2.49L230.87,451"/><path class="cls-4" d="M230.87,451c.1,7-.23,12.35-.23,12.35C223.36,469.29,218,471,214,470"/><path class="cls-4" d="M203.38,471a24.87,24.87,0,0,1-8.65,2.59"/><path class="cls-6" d="M282.77,566.24c26.16,18.76,48.51,28.09,82.21,22,32.83-6,43.62-40.16,45.45-44.8"/></svg>