<?xml version="1.0" encoding="utf-8"?>
<!-- Generator: Adobe Illustrator 25.2.1, SVG Export Plug-In . SVG Version: 6.00 Build 0)  -->
<svg version="1.1" id="Calque_1" xmlns="http://www.w3.org/2000/svg" xmlns:xlink="http://www.w3.org/1999/xlink" x="0px" y="0px"
	 viewBox="0 0 36.8 12" style="enable-background:new 0 0 36.8 12;" xml:space="preserve">
<style type="text/css">
	.st0{fill-rule:evenodd;clip-rule:evenodd;fill:#191919;}
	.st1{fill-rule:evenodd;clip-rule:evenodd;fill:#FBDB1C;}
</style>
<g>
	<path class="st0" d="M2.9,0H0v10.1h3c2.9,0,4.9-1.6,4.9-5.1S5.9,0,2.9,0L2.9,0z M5.5,5c0,2.4-1.1,3.3-2.7,3.3H2.4V1.8h0.4
		C4.4,1.8,5.5,2.6,5.5,5z M8.5,0h2.4l0.3,5.4c0,0.9,0,1.6,0,2.5h0.1c0.1-0.9,0.3-1.7,0.5-2.5l0.7-2.8h1.5l0.7,2.8
		c0.2,0.8,0.4,1.6,0.5,2.5h0.1c0-0.9,0-1.7,0.1-2.5L15.7,0h2.3l-1.3,10.1h-2.5L13.5,7c-0.1-0.6-0.3-1.3-0.3-1.9h0
		c-0.1,0.6-0.2,1.3-0.3,1.9l-0.6,3.1H9.9L8.5,0 M18.9,0h2.5l1,3.6L22.7,5h0.1l0.4-1.4l1-3.6h2.5v10.1h-2V7c0-1.1,0.2-3.6,0.3-4.7h0
		L24.1,5l-0.8,2.4h-1.1L21.4,5l-0.7-2.7h0c0.1,1.1,0.3,3.5,0.3,4.7v3.1h-1.9L18.9,0"/>
	<path class="st1" d="M29.6,12h7.2v-1.9h-7.2V12z"/>
</g>
</svg>
