<svg xmlns="http://www.w3.org/2000/svg" viewBox="0 0 850.39 850.39"><defs><style>.cls-1{fill:none;stroke:#eef0f2;stroke-miterlimit:10;stroke-width:13px;}</style></defs><g id="Calque_3" data-name="Calque 3"><g id="Calque_5" data-name="Calque 5"><path class="cls-1" d="M600.48,191.29c-12.68-.3-29.48-.08-39.74.05-32.49-.2-21,21.7-64.89,23.86-28.71,1.41-74.76,1.68-100.44,1.08-55.44-1.8-29.88-25.14-72.89-25H279.13c-70.56,0-118.26,319.32-59.6,319.27,31.35.14,56,1.06,92,0C362.37,509,367.77,419,418.93,419c25.93-.08,27,0,44.91,0,34.06,0,53.61,91.43,96.81,92.31,23,.48,66.21,0,92.26,0C712.49,511.61,669.37,192.88,600.48,191.29ZM388.17,314.4a18.37,18.37,0,0,1-18.37,18.37H346.26A5.25,5.25,0,0,0,341,338v36.8a5.25,5.25,0,0,1-5.25,5.24H323.48a18.36,18.36,0,0,1-18.36-18.36V338a5.25,5.25,0,0,0-5.25-5.24H265a5.25,5.25,0,0,1-5.25-5.25V317a18.38,18.38,0,0,1,18.37-18.37h21.73a5.25,5.25,0,0,0,5.25-5.24V256.58a5.24,5.24,0,0,1,5.24-5.25h12.28A18.37,18.37,0,0,1,341,269.7v23.66a5.25,5.25,0,0,0,5.25,5.24h36.66a5.25,5.25,0,0,1,5.25,5.25ZM504.1,339.08a21.7,21.7,0,1,1,21.51-21.69A21.6,21.6,0,0,1,504.1,339.08Zm43.57,44.14a21.69,21.69,0,1,1,21.5-21.69A21.6,21.6,0,0,1,547.67,383.22Zm.2-88.16a21.7,21.7,0,1,1,21.5-21.69A21.6,21.6,0,0,1,547.87,295.06ZM591,338.81a21.7,21.7,0,1,1,21.51-21.69A21.6,21.6,0,0,1,591,338.81Z"/></g></g></svg>