<?xml version="1.0" encoding="utf-8"?>
<!-- Generator: Adobe Illustrator 25.2.1, SVG Export Plug-In . SVG Version: 6.00 Build 0)  -->
<svg version="1.1" id="Calque_1" xmlns="http://www.w3.org/2000/svg" xmlns:xlink="http://www.w3.org/1999/xlink" x="0px" y="0px"
	 viewBox="0 0 524.6 525.3" style="enable-background:new 0 0 524.6 525.3;" xml:space="preserve">
<style type="text/css">
	.st0{fill:#EEF0F2;}
</style>
<g id="Calque_5">
	<path class="st0" d="M437.6,0.1c-12.7-0.3-29.5-0.1-39.7,0.1c-32.5-0.2-21,21.7-64.9,23.9c-28.7,1.4-74.8,1.7-100.4,1.1
		c-55.4-1.8-29.9-25.1-72.9-25h-43.4C45.7,0.1-2,319.5,56.7,319.4c31.4,0.1,56,1.1,92,0c50.8-1.6,56.2-91.6,107.4-91.6
		c25.9-0.1,27,0,44.9,0c34,0,53.6,91.4,96.8,92.3c23,0.5,66.2,0,92.3,0C549.6,320.5,506.5,1.7,437.6,0.1z M225.3,123.2
		c0,10.1-8.2,18.4-18.4,18.4h-23.6c-2.9,0-5.2,2.4-5.2,5.2v36.8c0,2.9-2.3,5.2-5.2,5.2c0,0,0,0,0,0h-12.3
		c-10.1,0-18.4-8.2-18.4-18.4c0,0,0,0,0,0v-23.7c0-2.9-2.4-5.2-5.2-5.2l0,0h-34.8c-2.9,0-5.2-2.3-5.2-5.2v-10.5
		c0-10.1,8.2-18.4,18.4-18.4c0,0,0,0,0,0H137c2.9,0,5.2-2.4,5.2-5.2V65.4c0-2.9,2.4-5.2,5.2-5.2l0,0h12.3c10.1,0,18.4,8.2,18.4,18.4
		c0,0,0,0,0,0v23.6c0,2.9,2.4,5.2,5.2,5.2h36.7c2.9,0,5.2,2.4,5.2,5.2L225.3,123.2z M341.2,147.9c-12,0.1-21.8-9.5-21.9-21.5
		s9.5-21.8,21.5-21.9s21.8,9.5,21.9,21.5c0,0.1,0,0.1,0,0.2C362.8,138.2,353.2,147.9,341.2,147.9z M384.8,192.1
		c-12,0.1-21.8-9.5-21.9-21.5c-0.1-12,9.5-21.8,21.5-21.9c12-0.1,21.8,9.5,21.9,21.5c0,0.1,0,0.1,0,0.2
		C406.4,182.3,396.7,192,384.8,192.1C384.8,192.1,384.8,192.1,384.8,192.1L384.8,192.1z M385,103.9c-12,0.1-21.8-9.5-21.9-21.5
		c-0.1-12,9.5-21.8,21.5-21.9c12-0.1,21.8,9.5,21.9,21.5c0,0.1,0,0.1,0,0.2C406.6,94.1,396.9,103.8,385,103.9
		C385,103.9,385,103.9,385,103.9L385,103.9z M428.1,147.7c-12,0.1-21.8-9.5-21.9-21.5c-0.1-12,9.5-21.8,21.5-21.9
		c12-0.1,21.8,9.5,21.9,21.5c0,0.1,0,0.1,0,0.2C449.7,137.9,440,147.6,428.1,147.7L428.1,147.7z"/>
</g>
<path class="st0" d="M329.7,374h22c2.8,0,4.4,2.4,4.8,7.1l0.4,62.7h8.9l0.4-10.8c0-3.6,1.6-5.6,4.8-6.2h15.4l-0.7-47.7
	c0.7-3.4,2.2-5,4.5-5h22c2.8,0,4.4,2.4,4.8,7.1v68.5c0,4.3-1.3,7-3.9,8h-16.4v16.7H411c3.8,0,5.6,2.5,5.6,7.4v36.4
	c-0.3,4.8-1.9,7.1-4.8,7.1h-22c-2.2,0-3.7-1.7-4.5-5v-14.8h-13.6c-4.4,0-6.5-1.9-6.5-5.6l0.4-24.9h-8.9l-0.4,42.4
	c0,4.3-1.3,6.9-3.9,8h-22.9c-2.2,0-3.7-1.7-4.5-5V379C326,375.6,327.5,374,329.7,374z"/>
<path class="st0" d="M437.8,374h22c2.3,0,3.8,1.7,4.5,5v65h29.4v-65c0.7-3.4,2.2-5,4.5-5h22c2.3,0.3,4.1,2.1,4.5,4.5v92
	c-0.3,2.3-2.1,4.1-4.5,4.5h-25.6V520c-0.5,3.6-2.2,5.3-5,5.3h-21.4c-2.7,0-4.3-2-4.8-5.9v-44.5h-25.5c-2.3-0.3-4.1-2.1-4.5-4.5v-92
	C433.7,376.1,435.5,374.3,437.8,374z"/>
<path class="st0" d="M0,381.4v136.8c0.4,4.8,2,7.2,4.8,7.2h81.6c2.8,0,4.5-2,5.1-6.2V458c0-4.3-2.2-6.5-6.5-6.5h-38
	c-4.4,0.6-6.5,2.5-6.5,5.5v16.7c0,2.9,1.8,4.7,5.3,5.5h14.5v10.6H31.2v-80h29.1v15.4c0,5.2,2,7.9,5.9,7.9h18.7
	c4.3,0,6.5-2.2,6.5-6.5V381c-0.3-4.7-2.2-7.1-5.6-7.2H6.4C2.1,373.9,0,376.4,0,381.4z"/>
<path class="st0" d="M108.1,380.3v138.8c0.5,4.1,2.2,6.2,5,6.2h82.5c2.6-1.3,3.9-3.7,3.9-7.2v-49.4c0-5-2.2-7.5-6.5-7.5h-18
	c-4.4,0-6.5,2.2-6.5,6.5v22h-29.1l-0.4-14.5h14.5c3.6-0.6,5.3-2.6,5.3-5.8l0.4-20.7c0-3-2.2-4.8-6.5-5.5h-13.3v-33.5h29.1v16.8
	c0,4.3,2.2,6.5,6.5,6.5H193c4.4,0,6.5-2.5,6.5-7.5v-44.1c0-5-2.1-7.5-6.4-7.5h-79.4C110.5,373.9,108.7,376,108.1,380.3z"/>
<path class="st0" d="M283,433h18.1c4.3,0,6.5-2.5,6.5-7.5v-44.1c0-5-2.2-7.5-6.5-7.5h-79.4c-3.1,0-5,2.2-5.6,6.5v138.8
	c0.5,4.1,2.2,6.2,5,6.2h82.5c2.6-1.3,3.9-3.7,3.9-7.2v-49.6c0-5-2.2-7.5-6.5-7.5H283c-4.4,0-6.5,2.2-6.5,6.5v22.2h-29.1l0.4-14.5
	h14.5c3.6-0.6,5.4-2.6,5.3-5.8l-0.4-20.7c0-3-2.2-4.8-6.5-5.5h-13.4v-33.5h29.1v16.8C276.4,430.8,278.6,433,283,433z"/>
</svg>
