<svg id="Calque_1" data-name="Calque 1" xmlns="http://www.w3.org/2000/svg" viewBox="0 0 850.39 850.39"><defs><style>.cls-1{fill:#eef0f2;}</style></defs><g id="Calque_5" data-name="Calque 5"><path class="cls-1" d="M592.72,191c-12.67-.29-29.48-.07-39.73.05-32.5-.19-21,21.71-64.9,23.87-28.7,1.41-74.75,1.68-100.44,1.08-55.43-1.8-29.88-25.14-72.89-25H271.37c-70.55,0-118.26,319.33-59.6,319.28,31.35.14,56,1.06,92,0,50.84-1.56,56.25-91.56,107.4-91.56,25.93-.08,27,0,44.92,0,34.05,0,53.6,91.43,96.8,92.31,23,.47,66.22,0,92.27,0C704.73,511.31,661.61,192.58,592.72,191ZM380.42,314.1a18.37,18.37,0,0,1-18.37,18.36H338.5a5.25,5.25,0,0,0-5.25,5.25V374.5a5.24,5.24,0,0,1-5.24,5.25H315.73a18.36,18.36,0,0,1-18.37-18.37V337.71a5.25,5.25,0,0,0-5.25-5.25H257.27a5.25,5.25,0,0,1-5.25-5.24V316.67a18.36,18.36,0,0,1,18.37-18.37h21.72a5.25,5.25,0,0,0,5.25-5.25V256.28a5.25,5.25,0,0,1,5.25-5.25h12.28a18.36,18.36,0,0,1,18.36,18.37v23.65a5.25,5.25,0,0,0,5.25,5.25h36.67a5.25,5.25,0,0,1,5.25,5.25Zm115.93,24.68a21.7,21.7,0,1,1,21.5-21.7A21.61,21.61,0,0,1,496.35,338.78Zm43.56,44.14a21.7,21.7,0,1,1,21.51-21.69A21.6,21.6,0,0,1,539.91,382.92Zm.2-88.16a21.7,21.7,0,1,1,21.51-21.7A21.6,21.6,0,0,1,540.11,294.76Zm43.11,43.75a21.7,21.7,0,1,1,21.5-21.69A21.6,21.6,0,0,1,583.22,338.51Z"/></g><path class="cls-1" d="M484.85,564.81h22q4.23,0,4.75,7.12l.36,62.65h8.9l.36-10.85q0-5.34,4.75-6.23h15.43l-.72-47.65c.74-3.36,2.23-5,4.45-5h22c2.82,0,4.41,2.37,4.75,7.12v68.5c0,4.3-1.28,7-3.86,8H551.62v16.68h14.54q5.64,0,5.64,7.42V709c-.34,4.75-1.93,7.12-4.75,7.12h-22c-2.22,0-3.71-1.68-4.45-5V696.28H527q-6.53,0-6.53-5.64l.36-24.9h-8.9l-.36,42.41q0,6.38-3.86,8H484.85q-3.35,0-4.45-5V569.85Q481.51,564.81,484.85,564.81Z"/><path class="cls-1" d="M592.94,564.81h22q3.42,0,4.45,5v65h29.38v-65c.7-3.36,2.18-5,4.46-5h22a5.25,5.25,0,0,1,4.45,4.45v92a5.25,5.25,0,0,1-4.45,4.45H649.63v45.1q-.82,5.34-5,5.34H623.21q-4.08,0-4.75-5.93V665.72H592.94a5.24,5.24,0,0,1-4.45-4.45v-92A5.24,5.24,0,0,1,592.94,564.81Z"/><path class="cls-1" d="M155.11,572.21V709q.67,7.18,4.75,7.18h81.61c2.82,0,4.51-2,5.05-6.15V648.83q0-6.5-6.53-6.49H202c-4.35.62-6.52,2.45-6.52,5.47v16.72q0,4.37,5.34,5.47h14.54v10.6H186.28v-80h29.08V616q0,7.86,5.93,7.86H240q6.52,0,6.53-6.49V571.87q-.51-7.12-5.57-7.17H161.56Q155.11,564.75,155.11,572.21Z"/><path class="cls-1" d="M263.21,571.19V710q.81,6.15,5,6.15h82.51q3.86-2,3.85-7.18V659.62q0-7.51-6.53-7.52H330q-6.53,0-6.53,6.5v22H294.37L294,666.1h14.54q5.34-.95,5.34-5.82l.36-20.71q0-4.53-6.53-5.47H294.37V600.59h29.08v16.76q0,6.49,6.53,6.49h18.1q6.54,0,6.53-7.52V572.21q0-7.46-6.44-7.51h-79.4Q264.09,564.75,263.21,571.19Z"/><path class="cls-1" d="M438.08,623.84h18.1q6.52,0,6.53-7.52V572.21q0-7.47-6.46-7.51H376.87q-4.68,0-5.57,6.49V710c.54,4.1,2.23,6.15,5.05,6.15h82.5q3.86-2,3.86-7.18V659.4q0-7.51-6.53-7.52h-18.1q-6.54,0-6.53,6.49V680.6H402.46l.36-14.5h14.54q5.36-.95,5.35-5.82l-.36-20.71q0-4.53-6.53-5.47H402.46V600.59h29.09v16.76Q431.55,623.84,438.08,623.84Z"/></svg>