<svg id="Layer_3_copy_6" data-name="Layer 3 copy 6" xmlns="http://www.w3.org/2000/svg" viewBox="0 0 1440 900"><defs><style>.cls-1,.cls-10,.cls-11,.cls-13,.cls-15,.cls-2,.cls-3,.cls-5,.cls-6,.cls-7,.cls-8{fill:none;}.cls-1,.cls-10,.cls-7,.cls-8{stroke:#ff80fe;}.cls-1,.cls-10,.cls-13,.cls-2,.cls-5{stroke-miterlimit:10;}.cls-1,.cls-2{stroke-width:13px;}.cls-2,.cls-3,.cls-5,.cls-6{stroke:#80ffff;}.cls-11,.cls-3,.cls-6,.cls-7,.cls-8{stroke-linecap:round;stroke-linejoin:round;}.cls-11,.cls-3,.cls-8{stroke-width:8px;}.cls-4{fill:#80ffff;}.cls-10,.cls-13,.cls-5,.cls-6,.cls-7{stroke-width:7px;}.cls-9{fill:#ff80fe;}.cls-11,.cls-13{stroke:#eef0f2;}.cls-12{fill:#eef0f2;}.cls-14{fill:#fff;}</style></defs><circle class="cls-1" cx="573" cy="418" r="68.5"/><circle class="cls-1" cx="862" cy="419" r="68.5"/><circle class="cls-2" cx="867" cy="414" r="68.5"/><circle class="cls-2" cx="581" cy="414" r="68.5"/><path class="cls-3" d="M1152.5,490.5c-3.13-16.12-20-101.77-48.5-186.51h0a101,101,0,0,1-158.55,83A86.56,86.56,0,1,1,915,353.57a101,101,0,0,1,157.4-122.95c-10.17-17.1-22.17-37.51-44.39-48.62-12-6-41-16-69.5-4.5a78.62,78.62,0,0,0-31,23l-136,1c-4.44,4.73-27.91,28.79-66,30-41.69,1.32-68-25.77-72-30h-132a96.85,96.85,0,0,0-30-15s-14-4.42-28-4C414,184,399,214,391,221a8.92,8.92,0,0,0-.93,1A101,101,0,0,1,540.8,346.17,86.49,86.49,0,1,1,497,392.89,101,101,0,0,1,348.08,308c-26.53,93.36-40.8,164.56-42.58,173.54C283,595,288,637,291.5,655.5c3.78,20,18.55,54.73,51,69,39,17.13,84.77-3.63,95-15C491,650,489,529,530.5,515.5a89.4,89.4,0,0,0,55,15c32.85-2.1,53.25-22.08,58-27l161,1c7,5.73,29.93,23.17,64,24a105.23,105.23,0,0,0,58-16c34.5,31.5,40.5,116.5,89,194,10.64,17,47,30.56,83,27,45.5-4.5,62.5-45.5,65-67C1166.49,640.8,1177.14,617.42,1152.5,490.5Z"/><circle class="cls-3" cx="448.5" cy="304.5" r="87.5"/><path class="cls-3" d="M1080,331h-31a12,12,0,0,1-12-12V288a12,12,0,0,1,12-12h31a11.89,11.89,0,0,1,5.72,1.46,87.65,87.65,0,0,0-59.56-57.22A12,12,0,0,1,1030,229v31a12,12,0,0,1-12,12H987a12,12,0,0,1-12-12V229a12,12,0,0,1,3.84-8.76,87.65,87.65,0,0,0-59.56,57.22A11.89,11.89,0,0,1,925,276h31a12,12,0,0,1,12,12v31a12,12,0,0,1-12,12H925a11.81,11.81,0,0,1-6.48-1.93,87.64,87.64,0,0,0,62.39,60.24A12,12,0,0,1,975,379V348a12,12,0,0,1,12-12h31a12,12,0,0,1,12,12v31a12,12,0,0,1-5.92,10.32,87.69,87.69,0,0,0,62.42-60.26A11.91,11.91,0,0,1,1080,331Z"/><rect class="cls-3" x="683" y="408" width="83" height="50" rx="12"/><rect class="cls-4" x="695" y="421" width="59" height="23.34" rx="6.91"/><circle class="cls-5" cx="665" cy="313" r="19.5"/><circle class="cls-5" cx="795" cy="313" r="19.5"/><g id="Traits-bleu"><line class="cls-6" x1="566.5" y1="237.5" x2="525.01" y2="237.5"/><line class="cls-6" x1="556.5" y1="266.5" x2="542.8" y2="266.5"/><line class="cls-6" x1="566.5" y1="293.5" x2="549.65" y2="293.5"/><line class="cls-6" x1="558.5" y1="324.5" x2="547.91" y2="324.5"/><line class="cls-6" x1="704.5" y1="304.5" x2="684.5" y2="304.5"/><line class="cls-6" x1="348.5" y1="387.5" x2="326.87" y2="387.5"/><line class="cls-6" x1="326.5" y1="420.5" x2="318.76" y2="421"/><line class="cls-6" x1="318.5" y1="532.5" x2="296.41" y2="532.5"/><line class="cls-6" x1="307.5" y1="565.5" x2="291.91" y2="565.5"/><line class="cls-6" x1="299.5" y1="639.5" x2="291.91" y2="639.5"/><line class="cls-6" x1="322.5" y1="669.5" x2="295.33" y2="669.5"/><line class="cls-6" x1="659.5" y1="363.5" x2="638.83" y2="363.5"/><line class="cls-6" x1="665.5" y1="382.5" x2="654.47" y2="385"/><line class="cls-6" x1="487.5" y1="532.5" x2="529.5" y2="532.5"/><line class="cls-6" x1="514.5" y1="565.5" x2="497.48" y2="565.5"/><line class="cls-6" x1="492.5" y1="616.5" x2="482.27" y2="616.5"/><line class="cls-6" x1="487.5" y1="653.5" x2="469.74" y2="653.5"/><line class="cls-6" x1="911.5" y1="420.5" x2="891.74" y2="421"/><line class="cls-6" x1="911.5" y1="407.5" x2="901.5" y2="407.5"/><line class="cls-6" x1="966.5" y1="427.5" x2="954.5" y2="427.5"/><line class="cls-6" x1="960.5" y1="467.5" x2="944.68" y2="467.5"/><line class="cls-6" x1="1145.5" y1="363.5" x2="1122.28" y2="363.5"/><line class="cls-6" x1="1151.5" y1="411.5" x2="1134.96" y2="411.5"/><line class="cls-6" x1="1174.5" y1="457.5" x2="1145.78" y2="458"/><line class="cls-6" x1="1168.5" y1="475.5" x2="1151.5" y2="475.5"/><line class="cls-6" x1="1168.5" y1="501.5" x2="1154.6" y2="501.5"/><line class="cls-6" x1="1184.5" y1="576.5" x2="1165.99" y2="576.5"/><line class="cls-6" x1="1019.5" y1="691.5" x2="1006.67" y2="691.5"/><line class="cls-6" x1="988.5" y1="599.5" x2="968.22" y2="599.5"/><line class="cls-6" x1="978.5" y1="565.5" x2="960.5" y2="565.5"/></g><g id="Traits-rose"><line class="cls-7" x1="315.5" y1="336.5" x2="332.89" y2="336.5"/><line class="cls-7" x1="295.5" y1="393.5" x2="315.5" y2="393.5"/><line class="cls-7" x1="287.5" y1="417.5" x2="311.97" y2="417.5"/><line class="cls-7" x1="287.5" y1="442.5" x2="305.98" y2="443"/><line class="cls-7" x1="278.5" y1="479.5" x2="295.5" y2="479.5"/><line class="cls-7" x1="270.5" y1="548.5" x2="285.5" y2="548.5"/><line class="cls-7" x1="263.5" y1="654.5" x2="277.5" y2="654.5"/><line class="cls-7" x1="278.5" y1="703.5" x2="295.5" y2="703.5"/><line class="cls-7" x1="438.5" y1="662.5" x2="458.74" y2="662.5"/><line class="cls-7" x1="452.5" y1="638.5" x2="468.55" y2="638.5"/><line class="cls-7" x1="468.5" y1="589.5" x2="481.58" y2="589.5"/><line class="cls-7" x1="473.5" y1="548.5" x2="493.5" y2="548.5"/><line class="cls-7" x1="443.5" y1="463.5" x2="485.86" y2="463.15"/><line class="cls-7" x1="464.5" y1="438.5" x2="481.1" y2="438.5"/><line class="cls-7" x1="916.5" y1="548.5" x2="934.94" y2="548.5"/><line class="cls-7" x1="934.5" y1="589.5" x2="951.38" y2="589.5"/><line class="cls-7" x1="954.5" y1="638.5" x2="966.5" y2="638.5"/><line class="cls-7" x1="1133.5" y1="633.5" x2="1158.28" y2="633.5"/><line class="cls-7" x1="1126.5" y1="560.5" x2="1151.5" y2="560.5"/><line class="cls-7" x1="1126.5" y1="522.5" x2="1146.61" y2="522.5"/><line class="cls-7" x1="1126.5" y1="487.5" x2="1139" y2="487.5"/><line class="cls-7" x1="1103.5" y1="436.5" x2="1126.5" y2="436.5"/><line class="cls-7" x1="1103.5" y1="387.5" x2="1116.29" y2="388"/><line class="cls-7" x1="519.5" y1="411.5" x2="529.5" y2="411.5"/></g><path class="cls-8" d="M1142.5,500.5c-3.13-16.12-20-101.77-48.5-186.51h0a101,101,0,0,1-158.55,83A86.56,86.56,0,1,1,905,363.57a101,101,0,0,1,157.4-122.95c-10.17-17.1-22.17-37.51-44.39-48.62-12-6-41-16-69.5-4.5a78.62,78.62,0,0,0-31,23l-136,1c-4.44,4.73-27.91,28.79-66,30-41.69,1.32-68-25.77-72-30h-132a96.85,96.85,0,0,0-30-15s-14-4.42-28-4C404,194,389,224,381,231a8.92,8.92,0,0,0-.93,1A101,101,0,0,1,530.8,356.17,86.49,86.49,0,1,1,487,402.89,101,101,0,0,1,338.08,318c-26.53,93.36-40.8,164.56-42.58,173.54C273,605,278,647,281.5,665.5c3.78,20,18.55,54.73,51,69,39,17.13,84.77-3.63,95-15C481,660,479,539,520.5,525.5a89.4,89.4,0,0,0,55,15c32.85-2.1,53.25-22.08,58-27l161,1c7,5.73,29.93,23.17,64,24a105.23,105.23,0,0,0,58-16c34.5,31.5,40.5,116.5,89,194,10.64,17,47,30.56,83,27,45.5-4.5,62.5-45.5,65-67C1156.49,650.8,1167.14,627.42,1142.5,500.5Z"/><circle class="cls-8" cx="438.5" cy="314.5" r="87.5"/><path class="cls-8" d="M1070,341h-31a12,12,0,0,1-12-12V298a12,12,0,0,1,12-12h31a11.89,11.89,0,0,1,5.72,1.46,87.65,87.65,0,0,0-59.56-57.22A12,12,0,0,1,1020,239v31a12,12,0,0,1-12,12H977a12,12,0,0,1-12-12V239a12,12,0,0,1,3.84-8.76,87.65,87.65,0,0,0-59.56,57.22A11.89,11.89,0,0,1,915,286h31a12,12,0,0,1,12,12v31a12,12,0,0,1-12,12H915a11.81,11.81,0,0,1-6.48-1.93,87.64,87.64,0,0,0,62.39,60.24A12,12,0,0,1,965,389V358a12,12,0,0,1,12-12h31a12,12,0,0,1,12,12v31a12,12,0,0,1-5.92,10.32,87.69,87.69,0,0,0,62.42-60.26A11.91,11.91,0,0,1,1070,341Z"/><rect class="cls-8" x="673" y="418" width="83" height="50" rx="12"/><rect class="cls-9" x="685" y="431" width="59" height="23.34" rx="6.91"/><circle class="cls-10" cx="655" cy="323" r="19.5"/><circle class="cls-10" cx="785" cy="323" r="19.5"/><path class="cls-11" d="M1146.5,493.5c-3.13-16.12-20-101.77-48.5-186.51h0a101,101,0,0,1-158.55,83A86.56,86.56,0,1,1,909,356.57a101,101,0,0,1,157.4-122.95c-10.17-17.1-22.17-37.51-44.39-48.62-12-6-41-16-69.5-4.5a78.62,78.62,0,0,0-31,23l-136,1c-4.44,4.73-27.91,28.79-66,30-41.69,1.32-68-25.77-72-30h-132a96.85,96.85,0,0,0-30-15s-14-4.42-28-4C408,187,393,217,385,224a8.92,8.92,0,0,0-.93,1A101,101,0,0,1,534.8,349.17,86.49,86.49,0,1,1,491,395.89,101,101,0,0,1,342.08,311c-26.53,93.36-40.8,164.56-42.58,173.54C277,598,282,640,285.5,658.5c3.78,20,18.55,54.73,51,69,39,17.13,84.77-3.63,95-15C485,653,483,532,524.5,518.5a89.4,89.4,0,0,0,55,15c32.85-2.1,53.25-22.08,58-27l161,1c7,5.73,29.93,23.17,64,24a105.23,105.23,0,0,0,58-16c34.5,31.5,40.5,116.5,89,194,10.64,17,47,30.56,83,27,45.5-4.5,62.5-45.5,65-67C1160.49,643.8,1171.14,620.42,1146.5,493.5Z"/><circle class="cls-11" cx="442.5" cy="307.5" r="87.5"/><path class="cls-11" d="M1074,334h-31a12,12,0,0,1-12-12V291a12,12,0,0,1,12-12h31a11.89,11.89,0,0,1,5.72,1.46,87.65,87.65,0,0,0-59.56-57.22A12,12,0,0,1,1024,232v31a12,12,0,0,1-12,12H981a12,12,0,0,1-12-12V232a12,12,0,0,1,3.84-8.76,87.65,87.65,0,0,0-59.56,57.22A11.89,11.89,0,0,1,919,279h31a12,12,0,0,1,12,12v31a12,12,0,0,1-12,12H919a11.81,11.81,0,0,1-6.48-1.93,87.64,87.64,0,0,0,62.39,60.24A12,12,0,0,1,969,382V351a12,12,0,0,1,12-12h31a12,12,0,0,1,12,12v31a12,12,0,0,1-5.92,10.32,87.69,87.69,0,0,0,62.42-60.26A11.91,11.91,0,0,1,1074,334Z"/><rect class="cls-11" x="677" y="411" width="83" height="50" rx="12"/><rect class="cls-12" x="689" y="424" width="59" height="23.34" rx="6.91"/><circle class="cls-13" cx="659" cy="316" r="19.5"/><circle class="cls-13" cx="789" cy="316" r="19.5"/><circle class="cls-9" cx="856.5" cy="411.5" r="36.5"/><circle class="cls-9" cx="566.5" cy="411.5" r="36.5"/><circle class="cls-4" cx="573.5" cy="410.5" r="36.5"/><circle class="cls-4" cx="866.5" cy="411.5" r="36.5"/><circle class="cls-14" cx="583.5" cy="409.5" r="26.5"/><circle class="cls-14" cx="856.5" cy="411.5" r="26.5"/><g id="Croix"><polygon class="cls-15" points="443.49 313.51 443.5 313.51 443.74 313.26 443.49 313.51"/><polygon class="cls-11" points="413 380 426 388 464 388 474 374 474 345 443.01 314.01 413 344.5 413 380"/><polygon class="cls-11" points="443.49 313.51 443.74 313.26 473.25 283.27 473.74 283.26 474 283 474 253 464 238 424 238 413 249 413 283.75 413.26 283.75 443.49 313.51"/><polygon class="cls-11" points="443 314 413 284 413 283.75 377.26 284.04 369.36 297.1 369.67 335.1 383.75 344.99 412.75 344.75 413 344.5 413 344 443 314"/><rect class="cls-11" x="442.9" y="313.75" width="0.7" height="0.01" transform="translate(-92.03 405.32) rotate(-45)"/><polygon class="cls-11" points="519.34 293.9 508.25 282.99 473.74 283.26 443.74 313.26 443.5 313.51 474.74 344.26 504.74 344.02 519.66 333.9 519.34 293.9"/><polygon class="cls-11" points="443.74 313.26 473.74 283.26 473.25 283.27 443.74 313.26"/><polygon class="cls-11" points="443 314 443.49 313.51 413.26 283.75 413 283.75 413 284 443 314"/><polygon class="cls-11" points="413 344 413 344.5 443.01 314.01 443 314 413 344"/><rect class="cls-9" x="423" y="251" width="30" height="30" rx="5"/><rect class="cls-9" x="376" y="298" width="30" height="30" rx="5"/><rect class="cls-9" x="472" y="298" width="30" height="30" rx="5"/><rect class="cls-9" x="423" y="344" width="30" height="30" rx="5"/><rect class="cls-4" x="478" y="298" width="30" height="30" rx="5"/><rect class="cls-4" x="433" y="251" width="30" height="30" rx="5"/><rect class="cls-4" x="383" y="299" width="30" height="30" rx="5"/><rect class="cls-4" x="431" y="344" width="30" height="30" rx="5"/></g><rect class="cls-9" x="978" y="230" width="30" height="30" rx="5"/><rect class="cls-9" x="911" y="292" width="30" height="30" rx="5"/><rect class="cls-9" x="1039" y="293" width="30" height="30" rx="5"/><rect class="cls-9" x="978" y="352" width="30" height="30" rx="5"/><rect class="cls-4" x="983" y="230" width="30" height="30" rx="5"/><rect class="cls-4" x="1046" y="293" width="30" height="30" rx="5"/><rect class="cls-4" x="983" y="352" width="30" height="30" rx="5"/><rect class="cls-4" x="920" y="292" width="30" height="30" rx="5"/><g id="Carrés-bleu"><rect class="cls-4" x="1188" y="540" width="25" height="25" rx="5"/><rect class="cls-4" x="1182" y="425" width="13" height="13" rx="5"/><rect class="cls-4" x="601" y="163" width="18" height="18" rx="5"/><rect class="cls-4" x="565" y="556" width="18" height="18" rx="5"/><rect class="cls-4" x="325" y="238" width="25" height="25" rx="5"/><rect class="cls-4" x="543" y="169" width="13" height="13" rx="5"/><rect class="cls-4" x="513" y="633" width="13" height="13" rx="5"/><rect class="cls-4" x="499" y="697" width="13" height="13" rx="5"/><rect class="cls-4" x="1101" y="248" width="18" height="18" rx="5"/></g><g id="Carrés-roses"><rect class="cls-9" x="251" y="508" width="25" height="25" rx="5"/><rect class="cls-9" x="262" y="351" width="18" height="18" rx="5"/><rect class="cls-9" x="875" y="556" width="18" height="18" rx="5"/><rect class="cls-9" x="245" y="593" width="13" height="13" rx="5"/></g><g id="Carrés-blancs"><rect class="cls-12" x="869" y="176" width="13" height="13" rx="5"/><rect class="cls-12" x="932" y="670" width="13" height="13" rx="5"/><rect class="cls-12" x="701" y="535" width="18" height="18" rx="5"/></g></svg>