<?xml version="1.0" encoding="utf-8"?>
<!-- Generator: Adobe Illustrator 25.2.1, SVG Export Plug-In . SVG Version: 6.00 Build 0)  -->
<svg version="1.1" id="Calque_1" xmlns="http://www.w3.org/2000/svg" xmlns:xlink="http://www.w3.org/1999/xlink" x="0px" y="0px"
	 viewBox="0 0 499.5 497.5" style="enable-background:new 0 0 499.5 497.5;" xml:space="preserve">
<style type="text/css">
	.st0{fill:none;stroke:#FF80FE;stroke-width:13;stroke-miterlimit:10;}
	.st1{fill:none;stroke:#80FFFF;stroke-width:13;stroke-miterlimit:10;}
	.st2{fill:none;stroke:#80FFFF;stroke-width:8;stroke-linecap:round;stroke-linejoin:round;}
	.st3{fill:#80FFFF;}
	.st4{fill:none;stroke:#80FFFF;stroke-width:7;stroke-miterlimit:10;}
	.st5{fill:none;stroke:#80FFFF;stroke-width:7;stroke-linecap:round;stroke-linejoin:round;}
	.st6{fill:none;stroke:#FF80FE;stroke-width:7;stroke-linecap:round;stroke-linejoin:round;}
	.st7{fill:none;stroke:#FF80FE;stroke-width:8;stroke-linecap:round;stroke-linejoin:round;}
	.st8{fill:#FF80FE;}
	.st9{fill:none;stroke:#FF80FE;stroke-width:7;stroke-miterlimit:10;}
	.st10{fill:none;stroke:#EEF0F2;stroke-width:8;stroke-linecap:round;stroke-linejoin:round;}
	.st11{fill:#EEF0F2;}
	.st12{fill:none;stroke:#EEF0F2;stroke-width:7;stroke-miterlimit:10;}
	.st13{fill:#FFFFFF;}
	.st14{fill:none;}
</style>
<circle class="st0" cx="275.9" cy="222.9" r="55.3"/>
<circle class="st0" cx="509.3" cy="223.7" r="55.3"/>
<circle class="st1" cx="513.4" cy="219.7" r="55.3"/>
<circle class="st1" cx="282.4" cy="219.7" r="55.3"/>
<path class="st2" d="M744,281.5c-2.5-13-16.2-82.2-39.2-150.6l0,0c0,45.1-36.5,81.6-81.6,81.6c-16.6,0-32.8-5.1-46.5-14.5
	c17.6,34.3,4.1,76.5-30.2,94.1c-34.3,17.6-76.5,4.1-94.1-30.2c-17.6-34.3-4.1-76.5,30.2-94.1c22.1-11.4,48.6-10.1,69.5,3.2
	c-22.1-39.3-8.2-89,31-111.1c31.2-17.6,70.1-12.8,96.1,11.8c-8.2-13.8-17.9-30.3-35.9-39.3c-9.7-4.8-33.1-12.9-56.1-3.6
	c-9.8,4-18.4,10.4-25,18.6L452.4,48c-3.6,3.8-22.5,23.3-53.3,24.2c-33.7,1.1-54.9-20.8-58.2-24.2H234.3c-7.3-5.4-15.5-9.5-24.2-12.1
	c0,0-11.3-3.6-22.6-3.2c-40,1.2-52.1,25.4-58.6,31.1c-0.3,0.2-0.5,0.5-0.8,0.8c36.6-26.3,87.6-18,113.9,18.6
	c17.1,23.8,20.1,55,7.9,81.7c34.9-16.4,76.5-1.3,92.9,33.6s1.3,76.5-33.6,92.9s-76.5,1.3-92.9-33.6c-8.1-17.4-8.8-37.3-1.8-55.2
	c-39.6,21.4-89.1,6.6-110.5-33c-5.9-11-9.2-23.1-9.7-35.6c-21.4,75.4-33,132.9-34.4,140.2c-18.2,91.6-14.1,125.6-11.3,140.5
	c3.1,16.2,15,44.2,41.2,55.7c31.5,13.8,68.5-2.9,76.7-12.1c43.2-48.1,41.6-145.8,75.1-156.7c13.1,8.8,28.7,13,44.4,12.1
	c26.5-1.7,43-17.8,46.8-21.8l130,0.8c5.7,4.6,24.2,18.7,51.7,19.4c16.5,0.3,32.8-4.1,46.8-12.9c27.9,25.4,32.7,94.1,71.9,156.7
	c8.6,13.7,38,24.7,67,21.8c36.7-3.6,50.5-36.7,52.5-54.1C755.3,402.8,763.9,384,744,281.5z"/>
<circle class="st2" cx="175.4" cy="131.2" r="70.7"/>
<path class="st2" d="M685.4,152.6h-25c-5.4,0-9.7-4.3-9.7-9.7v-25c0-5.4,4.3-9.7,9.7-9.7h25c1.6,0,3.2,0.4,4.6,1.2
	c-7.3-22.5-25.4-39.8-48.1-46.2c2,1.8,3.1,4.4,3.1,7.1v25c0,5.4-4.3,9.7-9.7,9.7h-25c-5.4,0-9.7-4.3-9.7-9.7v-25
	c0-2.7,1.1-5.2,3.1-7.1c-22.7,6.4-40.8,23.7-48.1,46.2c1.4-0.8,3-1.2,4.6-1.2h25c5.4,0,9.7,4.3,9.7,9.7v25c0,5.4-4.3,9.7-9.7,9.7
	h-25c-1.9,0-3.7-0.5-5.2-1.6c7,24,26.2,42.5,50.4,48.7c-3-1.7-4.8-4.9-4.8-8.3v-25c0-5.4,4.3-9.7,9.7-9.7h25c5.4,0,9.7,4.3,9.7,9.7
	v25c0,3.4-1.8,6.6-4.8,8.3c24.2-6.2,43.4-24.7,50.4-48.7C689.1,152.1,687.3,152.6,685.4,152.6z"/>
<path class="st2" d="M374.5,214.8h47.7c5.4,0,9.7,4.3,9.7,9.7v21c0,5.4-4.3,9.7-9.7,9.7h-47.7c-5.4,0-9.7-4.3-9.7-9.7v-21
	C364.8,219.2,369.1,214.8,374.5,214.8z"/>
<path class="st3" d="M380,225.3h36.5c3.1,0,5.6,2.5,5.6,5.6v7.7c0,3.1-2.5,5.6-5.6,5.6H380c-3.1,0-5.6-2.5-5.6-5.6v-7.7
	C374.5,227.8,377,225.3,380,225.3z"/>
<circle class="st4" cx="350.2" cy="138.1" r="15.7"/>
<circle class="st4" cx="455.2" cy="138.1" r="15.7"/>
<g id="Traits-bleu">
	<line class="st5" x1="270.7" y1="77.1" x2="237.2" y2="77.1"/>
	<line class="st5" x1="262.6" y1="100.5" x2="251.5" y2="100.5"/>
	<line class="st5" x1="270.7" y1="122.3" x2="257.1" y2="122.3"/>
	<line class="st5" x1="264.2" y1="147.4" x2="255.7" y2="147.4"/>
	<line class="st5" x1="382.1" y1="131.2" x2="366" y2="131.2"/>
	<line class="st5" x1="94.6" y1="198.3" x2="77.1" y2="198.3"/>
	<line class="st5" x1="76.8" y1="224.9" x2="70.6" y2="225.3"/>
	<line class="st5" x1="70.4" y1="315.4" x2="52.5" y2="315.4"/>
	<line class="st5" x1="61.5" y1="342" x2="48.9" y2="342"/>
	<line class="st5" x1="55" y1="401.8" x2="48.9" y2="401.8"/>
	<line class="st5" x1="73.6" y1="426" x2="51.7" y2="426"/>
	<line class="st5" x1="345.8" y1="178.9" x2="329.1" y2="178.9"/>
	<line class="st5" x1="350.6" y1="194.2" x2="341.7" y2="196.2"/>
	<line class="st5" x1="206.9" y1="315.4" x2="240.8" y2="315.4"/>
	<line class="st5" x1="228.7" y1="342" x2="214.9" y2="342"/>
	<line class="st5" x1="210.9" y1="383.2" x2="202.6" y2="383.2"/>
	<line class="st5" x1="206.9" y1="413.1" x2="192.5" y2="413.1"/>
	<line class="st5" x1="549.3" y1="224.9" x2="533.4" y2="225.3"/>
	<line class="st5" x1="549.3" y1="214.4" x2="541.2" y2="214.4"/>
	<line class="st5" x1="593.7" y1="230.6" x2="584" y2="230.6"/>
	<line class="st5" x1="588.9" y1="262.9" x2="576.1" y2="262.9"/>
	<line class="st5" x1="738.3" y1="178.9" x2="719.6" y2="178.9"/>
	<line class="st5" x1="743.2" y1="217.6" x2="729.8" y2="217.6"/>
	<line class="st5" x1="761.7" y1="254.8" x2="738.5" y2="255.2"/>
	<line class="st5" x1="756.9" y1="269.3" x2="743.2" y2="269.3"/>
	<line class="st5" x1="756.9" y1="290.3" x2="745.7" y2="290.3"/>
	<line class="st5" x1="769.8" y1="350.9" x2="754.9" y2="350.9"/>
	<line class="st5" x1="636.5" y1="443.8" x2="626.2" y2="443.8"/>
	<line class="st5" x1="611.5" y1="369.5" x2="595.1" y2="369.5"/>
	<line class="st5" x1="603.4" y1="342" x2="588.9" y2="342"/>
</g>
<g id="Traits-rose">
	<line class="st6" x1="67.9" y1="157.1" x2="82" y2="157.1"/>
	<line class="st6" x1="51.8" y1="203.1" x2="67.9" y2="203.1"/>
	<line class="st6" x1="45.3" y1="222.5" x2="65.1" y2="222.5"/>
	<line class="st6" x1="45.3" y1="242.7" x2="60.3" y2="243.1"/>
	<line class="st6" x1="38.1" y1="272.6" x2="51.8" y2="272.6"/>
	<line class="st6" x1="31.6" y1="328.3" x2="43.7" y2="328.3"/>
	<line class="st6" x1="25.9" y1="413.9" x2="37.2" y2="413.9"/>
	<line class="st6" x1="38.1" y1="453.5" x2="51.8" y2="453.5"/>
	<line class="st6" x1="167.3" y1="420.4" x2="183.6" y2="420.4"/>
	<line class="st6" x1="178.6" y1="401" x2="191.6" y2="401"/>
	<line class="st6" x1="191.5" y1="361.4" x2="202.1" y2="361.4"/>
	<line class="st6" x1="195.6" y1="328.3" x2="211.7" y2="328.3"/>
	<line class="st6" x1="171.3" y1="259.6" x2="205.5" y2="259.4"/>
	<line class="st6" x1="188.3" y1="239.5" x2="201.7" y2="239.5"/>
	<line class="st6" x1="553.4" y1="328.3" x2="568.2" y2="328.3"/>
	<line class="st6" x1="567.9" y1="361.4" x2="581.5" y2="361.4"/>
	<line class="st6" x1="584" y1="401" x2="593.7" y2="401"/>
	<line class="st6" x1="728.6" y1="397" x2="748.6" y2="397"/>
	<line class="st6" x1="723" y1="338" x2="743.2" y2="338"/>
	<line class="st6" x1="723" y1="307.3" x2="739.2" y2="307.3"/>
	<line class="st6" x1="723" y1="279" x2="733.1" y2="279"/>
	<line class="st6" x1="704.4" y1="237.8" x2="723" y2="237.8"/>
	<line class="st6" x1="704.4" y1="198.3" x2="714.7" y2="198.7"/>
	<line class="st6" x1="232.7" y1="217.6" x2="240.8" y2="217.6"/>
</g>
<path class="st7" d="M735.9,289.5c-2.5-13-16.2-82.2-39.2-150.6l0,0c0,45.1-36.5,81.6-81.6,81.6c-16.6,0-32.8-5.1-46.5-14.5
	c17.6,34.3,4.1,76.5-30.2,94.1s-76.5,4.1-94.1-30.2s-4.1-76.5,30.2-94.1c22.1-11.4,48.6-10.1,69.5,3.2c-22.1-39.3-8.2-89,31-111.1
	c31.2-17.6,70.1-12.8,96.1,11.8c-8.2-13.8-17.9-30.3-35.9-39.3c-9.7-4.8-33.1-12.9-56.1-3.6c-9.8,4-18.4,10.4-25,18.6l-109.8,0.8
	c-3.6,3.8-22.5,23.3-53.3,24.2c-33.7,1.1-54.9-20.8-58.2-24.2H226.3c-7.3-5.4-15.5-9.5-24.2-12.1c0,0-11.3-3.6-22.6-3.2
	c-40,1.2-52.1,25.4-58.6,31.1c-0.3,0.2-0.5,0.5-0.8,0.8c36.6-26.3,87.6-18,113.9,18.6c17.1,23.8,20.1,55,7.9,81.7
	c34.9-16.4,76.5-1.3,92.9,33.6s1.3,76.5-33.6,92.9c-34.9,16.4-76.5,1.3-92.9-33.6c-8.1-17.4-8.8-37.3-1.8-55.2
	c-39.6,21.4-89.1,6.6-110.5-33c-5.9-11-9.2-23.1-9.7-35.6c-21.4,75.4-33,132.9-34.4,140.2c-18.2,91.6-14.1,125.6-11.3,140.5
	c3.1,16.2,15,44.2,41.2,55.7c31.5,13.8,68.5-2.9,76.7-12.1c43.2-48.1,41.6-145.8,75.1-156.7c13.1,8.8,28.7,13,44.4,12.1
	c26.5-1.7,43-17.8,46.8-21.8l130,0.8c5.7,4.6,24.2,18.7,51.7,19.4c16.5,0.3,32.8-4.1,46.8-12.9c27.9,25.4,32.7,94.1,71.9,156.7
	c8.6,13.7,38,24.7,67,21.8c36.7-3.6,50.5-36.7,52.5-54.1C747.2,410.9,755.8,392,735.9,289.5z"/>
<circle class="st7" cx="167.3" cy="139.3" r="70.7"/>
<path class="st7" d="M677.3,160.7h-25c-5.4,0-9.7-4.3-9.7-9.7v-25c0-5.4,4.3-9.7,9.7-9.7h25c1.6,0,3.2,0.4,4.6,1.2
	c-7.3-22.5-25.4-39.8-48.1-46.2c2,1.8,3.1,4.4,3.1,7.1v25c0,5.4-4.3,9.7-9.7,9.7h-25c-5.4,0-9.7-4.3-9.7-9.7v-25
	c0-2.7,1.1-5.2,3.1-7.1c-22.7,6.4-40.8,23.7-48.1,46.2c1.4-0.8,3-1.2,4.6-1.2h25c5.4,0,9.7,4.3,9.7,9.7v25c0,5.4-4.3,9.7-9.7,9.7
	h-25c-1.9,0-3.7-0.5-5.2-1.6c7,24,26.2,42.5,50.4,48.7c-3-1.7-4.8-4.9-4.8-8.3v-25c0-5.4,4.3-9.7,9.7-9.7h25c5.4,0,9.7,4.3,9.7,9.7
	v25c0,3.4-1.8,6.6-4.8,8.3c24.2-6.2,43.4-24.7,50.4-48.7C681,160.2,679.2,160.7,677.3,160.7z"/>
<path class="st7" d="M366.4,222.9H414c5.4,0,9.7,4.3,9.7,9.7v21c0,5.4-4.3,9.7-9.7,9.7h-47.7c-5.4,0-9.7-4.3-9.7-9.7v-21
	C356.7,227.2,361,222.9,366.4,222.9z"/>
<path class="st8" d="M372,233.4h36.5c3.1,0,5.6,2.5,5.6,5.6v7.7c0,3.1-2.5,5.6-5.6,5.6H372c-3.1,0-5.6-2.5-5.6-5.6V239
	C366.4,235.9,368.9,233.4,372,233.4z"/>
<circle class="st9" cx="342.1" cy="146.2" r="15.7"/>
<circle class="st9" cx="447.1" cy="146.2" r="15.7"/>
<path class="st10" d="M739.1,283.9c-2.5-13-16.2-82.2-39.2-150.6l0,0c0,45.1-36.5,81.6-81.6,81.6c-16.6,0-32.8-5.1-46.5-14.5
	c17.6,34.3,4.1,76.5-30.2,94.1c-34.3,17.6-76.5,4.1-94.1-30.2s-4.1-76.5,30.2-94.1c22.1-11.4,48.6-10.1,69.5,3.2
	c-22.1-39.3-8.2-89,31-111.1c31.2-17.6,70.1-12.8,96.1,11.8c-8.2-13.8-17.9-30.3-35.9-39.3c-9.7-4.8-33.1-12.9-56.1-3.6
	c-9.8,4-18.4,10.4-25,18.6l-109.8,0.8c-3.6,3.8-22.5,23.3-53.3,24.2c-33.7,1.1-54.9-20.8-58.2-24.2H229.5
	c-7.3-5.4-15.5-9.5-24.2-12.1c0,0-11.3-3.6-22.6-3.2c-40,1.2-52.1,25.4-58.6,31.1c-0.3,0.2-0.5,0.5-0.8,0.8
	c36.6-26.3,87.6-18,113.9,18.6c17.1,23.8,20.1,55,7.9,81.7c34.9-16.4,76.5-1.3,92.9,33.6c16.4,34.9,1.3,76.5-33.6,92.9
	s-76.5,1.3-92.9-33.6c-8.1-17.4-8.8-37.3-1.8-55.2c-39.6,21.4-89.1,6.6-110.5-33c-5.9-11-9.2-23.1-9.7-35.6
	C68,211.9,56.5,269.4,55,276.6c-18.2,91.6-14.1,125.6-11.3,140.5c3.1,16.2,15,44.2,41.2,55.7c31.5,13.8,68.5-2.9,76.7-12.1
	c43.2-48.1,41.6-145.8,75.1-156.7c13.1,8.8,28.7,13,44.4,12.1c26.5-1.7,43-17.8,46.8-21.8l130,0.8c5.7,4.6,24.2,18.7,51.7,19.4
	c16.5,0.3,32.8-4.1,46.8-12.9c27.9,25.4,32.7,94.1,71.9,156.7c8.6,13.7,38,24.7,67,21.8c36.7-3.6,50.5-36.7,52.5-54.1
	C750.4,405.3,759,386.4,739.1,283.9z"/>
<circle class="st10" cx="170.5" cy="133.6" r="70.7"/>
<path class="st10" d="M680.6,155.1h-25c-5.4,0-9.7-4.3-9.7-9.7v-25c0-5.4,4.3-9.7,9.7-9.7h25c1.6,0,3.2,0.4,4.6,1.2
	c-7.3-22.5-25.4-39.8-48.1-46.2c2,1.8,3.1,4.4,3.1,7.1v25c0,5.4-4.3,9.7-9.7,9.7h-25c-5.4,0-9.7-4.3-9.7-9.7v-25
	c0-2.7,1.1-5.2,3.1-7.1c-22.7,6.4-40.8,23.7-48.1,46.2c1.4-0.8,3-1.2,4.6-1.2h25c5.4,0,9.7,4.3,9.7,9.7v25c0,5.4-4.3,9.7-9.7,9.7
	h-25c-1.9,0-3.7-0.5-5.2-1.6c7,24,26.2,42.5,50.4,48.7c-3-1.7-4.8-4.9-4.8-8.3v-25c0-5.4,4.3-9.7,9.7-9.7h25c5.4,0,9.7,4.3,9.7,9.7
	v25c0,3.4-1.8,6.6-4.8,8.3c24.2-6.2,43.4-24.7,50.4-48.7C684.3,154.5,682.4,155.1,680.6,155.1z"/>
<path class="st10" d="M369.6,217.2h47.7c5.4,0,9.7,4.3,9.7,9.7v21c0,5.4-4.3,9.7-9.7,9.7h-47.7c-5.4,0-9.7-4.3-9.7-9.7v-21
	C359.9,221.6,364.3,217.2,369.6,217.2z"/>
<path class="st11" d="M375.2,227.7h36.5c3.1,0,5.6,2.5,5.6,5.6v7.7c0,3.1-2.5,5.6-5.6,5.6h-36.5c-3.1,0-5.6-2.5-5.6-5.6v-7.7
	C369.6,230.2,372.1,227.7,375.2,227.7z"/>
<circle class="st12" cx="345.4" cy="140.5" r="15.7"/>
<circle class="st12" cx="450.4" cy="140.5" r="15.7"/>
<circle class="st8" cx="504.9" cy="217.6" r="29.5"/>
<circle class="st8" cx="270.7" cy="217.6" r="29.5"/>
<circle class="st3" cx="276.3" cy="216.8" r="29.5"/>
<circle class="st3" cx="513" cy="217.6" r="29.5"/>
<circle class="st13" cx="284.4" cy="216" r="21.4"/>
<circle class="st13" cx="504.9" cy="217.6" r="21.4"/>
<g id="Croix">
	<polygon class="st14" points="171.3,138.5 171.3,138.5 171.5,138.3 	"/>
	<polygon class="st10" points="146.7,192.2 157.2,198.7 187.9,198.7 196,187.4 196,163.9 170.9,138.9 146.7,163.5 	"/>
	<polygon class="st10" points="171.3,138.5 171.5,138.3 195.4,114.1 195.7,114.1 196,113.9 196,89.6 187.9,77.5 155.6,77.5 
		146.7,86.4 146.7,114.5 146.9,114.5 	"/>
	<polygon class="st10" points="170.9,138.9 146.7,114.7 146.7,114.5 117.8,114.7 111.4,125.2 111.7,155.9 123.1,163.9 146.5,163.7 
		146.7,163.5 146.7,163.1 	"/>
	
		<rect x="170.8" y="138.7" transform="matrix(0.7071 -0.7071 0.7071 0.7071 -47.9548 161.6275)" class="st10" width="0.6" height="0"/>
	<polygon class="st10" points="232.6,122.7 223.6,113.9 195.7,114.1 171.5,138.3 171.3,138.5 196.6,163.3 220.8,163.1 232.8,155 	
		"/>
	<polygon class="st10" points="171.5,138.3 195.7,114.1 195.4,114.1 	"/>
	<polygon class="st10" points="170.9,138.9 171.3,138.5 146.9,114.5 146.7,114.5 146.7,114.7 	"/>
	<polygon class="st10" points="146.7,163.1 146.7,163.5 170.9,138.9 170.9,138.9 	"/>
	<path class="st8" d="M158.8,88H175c2.2,0,4,1.8,4,4v16.2c0,2.2-1.8,4-4,4h-16.2c-2.2,0-4-1.8-4-4V92.1
		C154.8,89.8,156.6,88,158.8,88z"/>
	<path class="st8" d="M120.8,126H137c2.2,0,4,1.8,4,4v16.2c0,2.2-1.8,4-4,4h-16.2c-2.2,0-4-1.8-4-4V130
		C116.8,127.8,118.6,126,120.8,126z"/>
	<path class="st8" d="M198.4,126h16.2c2.2,0,4,1.8,4,4v16.2c0,2.2-1.8,4-4,4h-16.2c-2.2,0-4-1.8-4-4V130
		C194.3,127.8,196.2,126,198.4,126z"/>
	<path class="st8" d="M158.8,163.1H175c2.2,0,4,1.8,4,4v16.2c0,2.2-1.8,4-4,4h-16.2c-2.2,0-4-1.8-4-4v-16.2
		C154.8,164.9,156.6,163.1,158.8,163.1z"/>
	<path class="st3" d="M203.2,126h16.2c2.2,0,4,1.8,4,4v16.2c0,2.2-1.8,4-4,4h-16.2c-2.2,0-4-1.8-4-4V130
		C199.2,127.8,201,126,203.2,126z"/>
	<path class="st3" d="M166.9,88H183c2.2,0,4,1.8,4,4v16.2c0,2.2-1.8,4-4,4h-16.2c-2.2,0-4-1.8-4-4V92.1
		C162.8,89.8,164.7,88,166.9,88z"/>
	<path class="st3" d="M126.5,126.8h16.2c2.2,0,4,1.8,4,4V147c0,2.2-1.8,4-4,4h-16.2c-2.2,0-4-1.8-4-4v-16.2
		C122.5,128.6,124.3,126.8,126.5,126.8z"/>
	<path class="st3" d="M165.3,163.1h16.2c2.2,0,4,1.8,4,4v16.2c0,2.2-1.8,4-4,4h-16.2c-2.2,0-4-1.8-4-4v-16.2
		C161.2,164.9,163,163.1,165.3,163.1z"/>
</g>
<path class="st8" d="M607.1,71.1h16.2c2.2,0,4,1.8,4,4v16.2c0,2.2-1.8,4-4,4h-16.2c-2.2,0-4-1.8-4-4V75.1
	C603,72.9,604.8,71.1,607.1,71.1z"/>
<path class="st8" d="M552.9,121.1h16.2c2.2,0,4,1.8,4,4v16.2c0,2.2-1.8,4-4,4h-16.2c-2.2,0-4-1.8-4-4v-16.2
	C548.9,122.9,550.7,121.1,552.9,121.1z"/>
<path class="st8" d="M656.3,121.9h16.2c2.2,0,4,1.8,4,4v16.2c0,2.2-1.8,4-4,4h-16.2c-2.2,0-4-1.8-4-4V126
	C652.3,123.7,654.1,121.9,656.3,121.9z"/>
<path class="st8" d="M607.1,169.6h16.2c2.2,0,4,1.8,4,4v16.2c0,2.2-1.8,4-4,4h-16.2c-2.2,0-4-1.8-4-4v-16.2
	C603,171.4,604.8,169.6,607.1,169.6z"/>
<path class="st3" d="M611.1,71.1h16.2c2.2,0,4,1.8,4,4v16.2c0,2.2-1.8,4-4,4h-16.2c-2.2,0-4-1.8-4-4V75.1
	C607.1,72.9,608.9,71.1,611.1,71.1z"/>
<path class="st3" d="M662,121.9h16.2c2.2,0,4,1.8,4,4v16.2c0,2.2-1.8,4-4,4H662c-2.2,0-4-1.8-4-4V126
	C657.9,123.7,659.8,121.9,662,121.9z"/>
<path class="st3" d="M611.1,169.6h16.2c2.2,0,4,1.8,4,4v16.2c0,2.2-1.8,4-4,4h-16.2c-2.2,0-4-1.8-4-4v-16.2
	C607.1,171.4,608.9,169.6,611.1,169.6z"/>
<path class="st3" d="M560.2,121.1h16.2c2.2,0,4,1.8,4,4v16.2c0,2.2-1.8,4-4,4h-16.2c-2.2,0-4-1.8-4-4v-16.2
	C556.2,122.9,558,121.1,560.2,121.1z"/>
<g id="Carrés-bleu">
	<path class="st3" d="M776.7,321.4h12.1c2.2,0,4,1.8,4,4v12.1c0,2.2-1.8,4-4,4h-12.1c-2.2,0-4-1.8-4-4v-12.1
		C772.6,323.2,774.4,321.4,776.7,321.4z"/>
	<path class="st3" d="M771.8,228.6h2.4c2.2,0,4,1.8,4,4v2.4c0,2.2-1.8,4-4,4h-2.4c-2.2,0-4-1.8-4-4v-2.4
		C767.8,230.4,769.6,228.6,771.8,228.6z"/>
	<path class="st3" d="M302.6,16.9h6.5c2.2,0,4,1.8,4,4v6.5c0,2.2-1.8,4-4,4h-6.5c-2.2,0-4-1.8-4-4V21
		C298.5,18.7,300.3,16.9,302.6,16.9z"/>
	<path class="st3" d="M273.5,334.4h6.5c2.2,0,4,1.8,4,4v6.5c0,2.2-1.8,4-4,4h-6.5c-2.2,0-4-1.8-4-4v-6.5
		C269.5,336.2,271.3,334.4,273.5,334.4z"/>
	<path class="st3" d="M79.7,77.5h12.1c2.2,0,4,1.8,4,4v12.1c0,2.2-1.8,4-4,4H79.7c-2.2,0-4-1.8-4-4V81.6
		C75.6,79.3,77.4,77.5,79.7,77.5z"/>
	<path class="st3" d="M255.7,21.8h2.4c2.2,0,4,1.8,4,4v2.4c0,2.2-1.8,4-4,4h-2.4c-2.2,0-4-1.8-4-4v-2.4
		C251.7,23.6,253.5,21.8,255.7,21.8z"/>
	<path class="st3" d="M231.5,396.5h2.4c2.2,0,4,1.8,4,4v2.4c0,2.2-1.8,4-4,4h-2.4c-2.2,0-4-1.8-4-4v-2.4
		C227.5,398.4,229.3,396.5,231.5,396.5z"/>
	<path class="st3" d="M220.2,448.2h2.4c2.2,0,4,1.8,4,4v2.4c0,2.2-1.8,4-4,4h-2.4c-2.2,0-4-1.8-4-4v-2.4
		C216.1,450,218,448.2,220.2,448.2z"/>
	<path class="st3" d="M706.4,85.6h6.5c2.2,0,4,1.8,4,4v6.5c0,2.2-1.8,4-4,4h-6.5c-2.2,0-4-1.8-4-4v-6.5
		C702.4,87.4,704.2,85.6,706.4,85.6z"/>
</g>
<g id="Carrés-roses">
	<path class="st8" d="M19.9,295.6H32c2.2,0,4,1.8,4,4v12.1c0,2.2-1.8,4-4,4H19.9c-2.2,0-4-1.8-4-4v-12.1
		C15.8,297.4,17.7,295.6,19.9,295.6z"/>
	<path class="st8" d="M28.8,168.8h6.5c2.2,0,4,1.8,4,4v6.5c0,2.2-1.8,4-4,4h-6.5c-2.2,0-4-1.8-4-4v-6.5
		C24.7,170.6,26.5,168.8,28.8,168.8z"/>
	<path class="st8" d="M523.9,334.4h6.5c2.2,0,4,1.8,4,4v6.5c0,2.2-1.8,4-4,4h-6.5c-2.2,0-4-1.8-4-4v-6.5
		C519.8,336.2,521.6,334.4,523.9,334.4z"/>
	<path class="st8" d="M15,364.2h2.4c2.2,0,4,1.8,4,4v2.4c0,2.2-1.8,4-4,4H15c-2.2,0-4-1.8-4-4v-2.4C11,366,12.8,364.2,15,364.2z"/>
</g>
<g id="Carrés-blancs">
	<path class="st11" d="M519,27.4h2.4c2.2,0,4,1.8,4,4v2.4c0,2.2-1.8,4-4,4H519c-2.2,0-4-1.8-4-4v-2.4C515,29.2,516.8,27.4,519,27.4z
		"/>
	<path class="st11" d="M569.9,426.4h2.4c2.2,0,4,1.8,4,4v2.4c0,2.2-1.8,4-4,4h-2.4c-2.2,0-4-1.8-4-4v-2.4
		C565.9,428.2,567.7,426.4,569.9,426.4z"/>
	<path class="st11" d="M383.3,317.4h6.5c2.2,0,4,1.8,4,4v6.5c0,2.2-1.8,4-4,4h-6.5c-2.2,0-4-1.8-4-4v-6.5
		C379.3,319.2,381.1,317.4,383.3,317.4z"/>
</g>
</svg>
