<?xml version="1.0" encoding="utf-8"?>
<!-- Generator: Adobe Illustrator 25.2.1, SVG Export Plug-In . SVG Version: 6.00 Build 0)  -->
<svg version="1.1" id="Layer_3_copy_6" xmlns="http://www.w3.org/2000/svg" xmlns:xlink="http://www.w3.org/1999/xlink" x="0px"
	 y="0px" viewBox="0 0 968 585.1" style="enable-background:new 0 0 968 585.1;" xml:space="preserve">
<style type="text/css">
	.st0{fill:none;stroke:#FF80FE;stroke-width:13;stroke-miterlimit:10;}
	.st1{fill:none;stroke:#80FFFF;stroke-width:13;stroke-miterlimit:10;}
	.st2{fill:none;stroke:#80FFFF;stroke-width:8;stroke-linecap:round;stroke-linejoin:round;}
	.st3{fill:#80FFFF;}
	.st4{fill:none;stroke:#80FFFF;stroke-width:7;stroke-miterlimit:10;}
	.st5{fill:none;stroke:#80FFFF;stroke-width:7;stroke-linecap:round;stroke-linejoin:round;}
	.st6{fill:none;stroke:#FF80FE;stroke-width:7;stroke-linecap:round;stroke-linejoin:round;}
	.st7{fill:none;stroke:#FF80FE;stroke-width:8;stroke-linecap:round;stroke-linejoin:round;}
	.st8{fill:#FF80FE;}
	.st9{fill:none;stroke:#FF80FE;stroke-width:7;stroke-miterlimit:10;}
	.st10{fill:none;stroke:#EEF0F2;stroke-width:8;stroke-linecap:round;stroke-linejoin:round;}
	.st11{fill:#EEF0F2;}
	.st12{fill:none;stroke:#EEF0F2;stroke-width:7;stroke-miterlimit:10;}
	.st13{fill:#FFFFFF;}
	.st14{fill:none;}
</style>
<circle class="st0" cx="328" cy="255" r="68.5"/>
<circle class="st0" cx="617" cy="256" r="68.5"/>
<circle class="st1" cx="622" cy="251" r="68.5"/>
<circle class="st1" cx="336" cy="251" r="68.5"/>
<path class="st2" d="M907.5,327.5c-3.1-16.1-20-101.8-48.5-186.5l0,0c0,55.8-45.2,101-101,101c-20.6,0-40.6-6.3-57.5-18
	c21.9,42.5,5.1,94.7-37.4,116.6s-94.7,5.1-116.6-37.4s-5.1-94.7,37.4-116.6c27.4-14.1,60.2-12.5,86.1,4
	C642.6,142,659.8,80.4,708.4,53c38.6-21.7,86.8-15.8,119,14.6C817.2,50.5,805.2,30.1,783,19c-12-6-41-16-69.5-4.5
	c-12.1,5-22.7,12.9-31,23l-136,1c-4.4,4.7-27.9,28.8-66,30c-41.7,1.3-68-25.8-72-30h-132c-9.1-6.7-19.2-11.8-30-15c0,0-14-4.4-28-4
	C169,21,154,51,146,58c-0.3,0.3-0.6,0.6-0.9,1c45.3-32.6,108.4-22.2,141,23.1c21.2,29.5,24.9,68.1,9.8,101.1
	c43.2-20.3,94.7-1.7,115,41.6c20.3,43.2,1.7,94.7-41.6,115s-94.7,1.7-115-41.6c-10.1-21.5-10.9-46.2-2.2-68.3
	c-49.1,26.5-110.4,8.2-136.9-40.9c-7.3-13.6-11.4-28.6-12.1-44c-26.5,93.4-40.8,164.6-42.6,173.5C38,432,43,474,46.5,492.5
	c3.8,20,18.5,54.7,51,69c39,17.1,84.8-3.6,95-15c53.5-59.5,51.5-180.5,93-194c16.2,10.9,35.5,16.1,55,15c32.8-2.1,53.2-22.1,58-27
	l161,1c7,5.7,29.9,23.2,64,24c20.5,0.4,40.6-5.1,58-16c34.5,31.5,40.5,116.5,89,194c10.6,17,47,30.6,83,27c45.5-4.5,62.5-45.5,65-67
	C921.5,477.8,932.1,454.4,907.5,327.5z"/>
<circle class="st2" cx="203.5" cy="141.5" r="87.5"/>
<path class="st2" d="M835,168h-31c-6.6,0-12-5.4-12-12v-31c0-6.6,5.4-12,12-12h31c2,0,4,0.5,5.7,1.5c-9.1-27.8-31.4-49.3-59.6-57.2
	c2.4,2.3,3.8,5.4,3.8,8.8v31c0,6.6-5.4,12-12,12h-31c-6.6,0-12-5.4-12-12V66c0-3.3,1.4-6.5,3.8-8.8c-28.2,7.9-50.5,29.4-59.6,57.2
	c1.8-1,3.7-1.5,5.7-1.5h31c6.6,0,12,5.4,12,12v31c0,6.6-5.4,12-12,12h-31c-2.3,0-4.6-0.7-6.5-1.9c8.7,29.7,32.4,52.6,62.4,60.2
	c-3.7-2.2-5.9-6.1-5.9-10.3v-31c0-6.6,5.4-12,12-12h31c6.6,0,12,5.4,12,12v31c0,4.2-2.3,8.2-5.9,10.3c30-7.7,53.7-30.6,62.4-60.3
	C839.6,167.3,837.3,168,835,168z"/>
<path class="st2" d="M450,245h59c6.6,0,12,5.4,12,12v26c0,6.6-5.4,12-12,12h-59c-6.6,0-12-5.4-12-12v-26
	C438,250.4,443.4,245,450,245z"/>
<path class="st3" d="M456.9,258h45.2c3.8,0,6.9,3.1,6.9,6.9v9.5c0,3.8-3.1,6.9-6.9,6.9h-45.2c-3.8,0-6.9-3.1-6.9-6.9v-9.5
	C450,261.1,453.1,258,456.9,258z"/>
<circle class="st4" cx="420" cy="150" r="19.5"/>
<circle class="st4" cx="550" cy="150" r="19.5"/>
<g id="Traits-bleu">
	<line class="st5" x1="321.5" y1="74.5" x2="280" y2="74.5"/>
	<line class="st5" x1="311.5" y1="103.5" x2="297.8" y2="103.5"/>
	<line class="st5" x1="321.5" y1="130.5" x2="304.7" y2="130.5"/>
	<line class="st5" x1="313.5" y1="161.5" x2="302.9" y2="161.5"/>
	<line class="st5" x1="459.5" y1="141.5" x2="439.5" y2="141.5"/>
	<line class="st5" x1="103.5" y1="224.5" x2="81.9" y2="224.5"/>
	<line class="st5" x1="81.5" y1="257.5" x2="73.8" y2="258"/>
	<line class="st5" x1="73.5" y1="369.5" x2="51.4" y2="369.5"/>
	<line class="st5" x1="62.5" y1="402.5" x2="46.9" y2="402.5"/>
	<line class="st5" x1="54.5" y1="476.5" x2="46.9" y2="476.5"/>
	<line class="st5" x1="77.5" y1="506.5" x2="50.3" y2="506.5"/>
	<line class="st5" x1="414.5" y1="200.5" x2="393.8" y2="200.5"/>
	<line class="st5" x1="420.5" y1="219.5" x2="409.5" y2="222"/>
	<line class="st5" x1="242.5" y1="369.5" x2="284.5" y2="369.5"/>
	<line class="st5" x1="269.5" y1="402.5" x2="252.5" y2="402.5"/>
	<line class="st5" x1="247.5" y1="453.5" x2="237.3" y2="453.5"/>
	<line class="st5" x1="242.5" y1="490.5" x2="224.7" y2="490.5"/>
	<line class="st5" x1="666.5" y1="257.5" x2="646.7" y2="258"/>
	<line class="st5" x1="666.5" y1="244.5" x2="656.5" y2="244.5"/>
	<line class="st5" x1="721.5" y1="264.5" x2="709.5" y2="264.5"/>
	<line class="st5" x1="715.5" y1="304.5" x2="699.7" y2="304.5"/>
	<line class="st5" x1="900.5" y1="200.5" x2="877.3" y2="200.5"/>
	<line class="st5" x1="906.5" y1="248.5" x2="890" y2="248.5"/>
	<line class="st5" x1="929.5" y1="294.5" x2="900.8" y2="295"/>
	<line class="st5" x1="923.5" y1="312.5" x2="906.5" y2="312.5"/>
	<line class="st5" x1="923.5" y1="338.5" x2="909.6" y2="338.5"/>
	<line class="st5" x1="939.5" y1="413.5" x2="921" y2="413.5"/>
	<line class="st5" x1="774.5" y1="528.5" x2="761.7" y2="528.5"/>
	<line class="st5" x1="743.5" y1="436.5" x2="723.2" y2="436.5"/>
	<line class="st5" x1="733.5" y1="402.5" x2="715.5" y2="402.5"/>
</g>
<g id="Traits-rose">
	<line class="st6" x1="70.5" y1="173.5" x2="87.9" y2="173.5"/>
	<line class="st6" x1="50.5" y1="230.5" x2="70.5" y2="230.5"/>
	<line class="st6" x1="42.5" y1="254.5" x2="67" y2="254.5"/>
	<line class="st6" x1="42.5" y1="279.5" x2="61" y2="280"/>
	<line class="st6" x1="33.5" y1="316.5" x2="50.5" y2="316.5"/>
	<line class="st6" x1="25.5" y1="385.5" x2="40.5" y2="385.5"/>
	<line class="st6" x1="18.5" y1="491.5" x2="32.5" y2="491.5"/>
	<line class="st6" x1="33.5" y1="540.5" x2="50.5" y2="540.5"/>
	<line class="st6" x1="193.5" y1="499.5" x2="213.7" y2="499.5"/>
	<line class="st6" x1="207.5" y1="475.5" x2="223.5" y2="475.5"/>
	<line class="st6" x1="223.5" y1="426.5" x2="236.6" y2="426.5"/>
	<line class="st6" x1="228.5" y1="385.5" x2="248.5" y2="385.5"/>
	<line class="st6" x1="198.5" y1="300.5" x2="240.9" y2="300.1"/>
	<line class="st6" x1="219.5" y1="275.5" x2="236.1" y2="275.5"/>
	<line class="st6" x1="671.5" y1="385.5" x2="689.9" y2="385.5"/>
	<line class="st6" x1="689.5" y1="426.5" x2="706.4" y2="426.5"/>
	<line class="st6" x1="709.5" y1="475.5" x2="721.5" y2="475.5"/>
	<line class="st6" x1="888.5" y1="470.5" x2="913.3" y2="470.5"/>
	<line class="st6" x1="881.5" y1="397.5" x2="906.5" y2="397.5"/>
	<line class="st6" x1="881.5" y1="359.5" x2="901.6" y2="359.5"/>
	<line class="st6" x1="881.5" y1="324.5" x2="894" y2="324.5"/>
	<line class="st6" x1="858.5" y1="273.5" x2="881.5" y2="273.5"/>
	<line class="st6" x1="858.5" y1="224.5" x2="871.3" y2="225"/>
	<line class="st6" x1="274.5" y1="248.5" x2="284.5" y2="248.5"/>
</g>
<path class="st7" d="M897.5,337.5c-3.1-16.1-20-101.8-48.5-186.5l0,0c0,55.8-45.2,101-101,101c-20.6,0-40.6-6.3-57.5-18
	c21.9,42.5,5.1,94.7-37.4,116.6s-94.7,5.1-116.6-37.4s-5.1-94.7,37.4-116.6c27.4-14.1,60.2-12.5,86.1,4
	C632.6,152,649.8,90.4,698.4,63c38.6-21.7,86.8-15.8,119,14.6C807.2,60.5,795.2,40.1,773,29c-12-6-41-16-69.5-4.5
	c-12.1,5-22.7,12.9-31,23l-136,1c-4.4,4.7-27.9,28.8-66,30c-41.7,1.3-68-25.8-72-30h-132c-9.1-6.7-19.2-11.8-30-15c0,0-14-4.4-28-4
	C159,31,144,61,136,68c-0.3,0.3-0.6,0.6-0.9,1c45.3-32.6,108.4-22.2,141,23.1c21.2,29.5,24.9,68.1,9.8,101.1
	c43.2-20.3,94.7-1.7,115,41.6c20.3,43.2,1.7,94.7-41.6,115c-43.2,20.3-94.7,1.7-115-41.6c-10.1-21.5-10.9-46.2-2.2-68.3
	c-49.1,26.5-110.4,8.2-136.9-40.9c-7.3-13.6-11.4-28.6-12.1-44c-26.5,93.4-40.8,164.6-42.6,173.5C28,442,33,484,36.5,502.5
	c3.8,20,18.5,54.7,51,69c39,17.1,84.8-3.6,95-15c53.5-59.5,51.5-180.5,93-194c16.2,10.9,35.5,16.1,55,15c32.8-2.1,53.2-22.1,58-27
	l161,1c7,5.7,29.9,23.2,64,24c20.5,0.4,40.6-5.1,58-16c34.5,31.5,40.5,116.5,89,194c10.6,17,47,30.6,83,27c45.5-4.5,62.5-45.5,65-67
	C911.5,487.8,922.1,464.4,897.5,337.5z"/>
<circle class="st7" cx="193.5" cy="151.5" r="87.5"/>
<path class="st7" d="M825,178h-31c-6.6,0-12-5.4-12-12v-31c0-6.6,5.4-12,12-12h31c2,0,4,0.5,5.7,1.5c-9.1-27.8-31.4-49.3-59.6-57.2
	c2.4,2.3,3.8,5.4,3.8,8.8v31c0,6.6-5.4,12-12,12h-31c-6.6,0-12-5.4-12-12V76c0-3.3,1.4-6.5,3.8-8.8c-28.2,7.9-50.5,29.4-59.6,57.2
	c1.8-1,3.7-1.5,5.7-1.5h31c6.6,0,12,5.4,12,12v31c0,6.6-5.4,12-12,12h-31c-2.3,0-4.6-0.7-6.5-1.9c8.7,29.7,32.4,52.6,62.4,60.2
	c-3.7-2.2-5.9-6.1-5.9-10.3v-31c0-6.6,5.4-12,12-12h31c6.6,0,12,5.4,12,12v31c0,4.2-2.3,8.2-5.9,10.3c30-7.7,53.7-30.6,62.4-60.3
	C829.6,177.3,827.3,178,825,178z"/>
<path class="st7" d="M440,255h59c6.6,0,12,5.4,12,12v26c0,6.6-5.4,12-12,12h-59c-6.6,0-12-5.4-12-12v-26
	C428,260.4,433.4,255,440,255z"/>
<path class="st8" d="M446.9,268h45.2c3.8,0,6.9,3.1,6.9,6.9v9.5c0,3.8-3.1,6.9-6.9,6.9h-45.2c-3.8,0-6.9-3.1-6.9-6.9v-9.5
	C440,271.1,443.1,268,446.9,268z"/>
<circle class="st9" cx="410" cy="160" r="19.5"/>
<circle class="st9" cx="540" cy="160" r="19.5"/>
<path class="st10" d="M901.5,330.5c-3.1-16.1-20-101.8-48.5-186.5l0,0c0,55.8-45.2,101-101,101c-20.6,0-40.6-6.3-57.5-18
	c21.9,42.5,5.1,94.7-37.4,116.6s-94.7,5.1-116.6-37.4s-5.1-94.7,37.4-116.6c27.4-14.1,60.2-12.5,86.1,4
	C636.6,145,653.8,83.4,702.4,56c38.6-21.7,86.8-15.8,119,14.6C811.2,53.5,799.2,33.1,777,22c-12-6-41-16-69.5-4.5
	c-12.1,5-22.7,12.9-31,23l-136,1c-4.4,4.7-27.9,28.8-66,30c-41.7,1.3-68-25.8-72-30h-132c-9.1-6.7-19.2-11.8-30-15c0,0-14-4.4-28-4
	C163,24,148,54,140,61c-0.3,0.3-0.6,0.6-0.9,1c45.3-32.6,108.4-22.2,141,23.1c21.2,29.5,24.9,68.1,9.8,101.1
	c43.2-20.3,94.7-1.7,115,41.6c20.3,43.2,1.7,94.7-41.6,115s-94.7,1.7-115-41.6c-10.1-21.5-10.9-46.2-2.2-68.3
	c-49.1,26.5-110.4,8.2-136.9-40.9c-7.3-13.6-11.4-28.6-12.1-44c-26.5,93.4-40.8,164.6-42.6,173.5C32,435,37,477,40.5,495.5
	c3.8,20,18.5,54.7,51,69c39,17.1,84.8-3.6,95-15c53.5-59.5,51.5-180.5,93-194c16.2,10.9,35.5,16.1,55,15c32.8-2.1,53.2-22.1,58-27
	l161,1c7,5.7,29.9,23.2,64,24c20.5,0.4,40.6-5.1,58-16c34.5,31.5,40.5,116.5,89,194c10.6,17,47,30.6,83,27c45.5-4.5,62.5-45.5,65-67
	C915.5,480.8,926.1,457.4,901.5,330.5z"/>
<circle class="st10" cx="197.5" cy="144.5" r="87.5"/>
<path class="st10" d="M829,171h-31c-6.6,0-12-5.4-12-12v-31c0-6.6,5.4-12,12-12h31c2,0,4,0.5,5.7,1.5c-9.1-27.8-31.4-49.3-59.6-57.2
	c2.4,2.3,3.8,5.4,3.8,8.8v31c0,6.6-5.4,12-12,12h-31c-6.6,0-12-5.4-12-12V69c0-3.3,1.4-6.5,3.8-8.8c-28.2,7.9-50.5,29.4-59.6,57.2
	c1.8-1,3.7-1.5,5.7-1.5h31c6.6,0,12,5.4,12,12v31c0,6.6-5.4,12-12,12h-31c-2.3,0-4.6-0.7-6.5-1.9c8.7,29.7,32.4,52.6,62.4,60.2
	c-3.7-2.2-5.9-6.1-5.9-10.3v-31c0-6.6,5.4-12,12-12h31c6.6,0,12,5.4,12,12v31c0,4.2-2.3,8.2-5.9,10.3c30-7.7,53.7-30.6,62.4-60.3
	C833.6,170.3,831.3,171,829,171z"/>
<path class="st10" d="M444,248h59c6.6,0,12,5.4,12,12v26c0,6.6-5.4,12-12,12h-59c-6.6,0-12-5.4-12-12v-26
	C432,253.4,437.4,248,444,248z"/>
<path class="st11" d="M450.9,261h45.2c3.8,0,6.9,3.1,6.9,6.9v9.5c0,3.8-3.1,6.9-6.9,6.9h-45.2c-3.8,0-6.9-3.1-6.9-6.9v-9.5
	C444,264.1,447.1,261,450.9,261z"/>
<circle class="st12" cx="414" cy="153" r="19.5"/>
<circle class="st12" cx="544" cy="153" r="19.5"/>
<circle class="st8" cx="611.5" cy="248.5" r="36.5"/>
<circle class="st8" cx="321.5" cy="248.5" r="36.5"/>
<circle class="st3" cx="328.5" cy="247.5" r="36.5"/>
<circle class="st3" cx="621.5" cy="248.5" r="36.5"/>
<circle class="st13" cx="338.5" cy="246.5" r="26.5"/>
<circle class="st13" cx="611.5" cy="248.5" r="26.5"/>
<g id="Croix">
	<polygon class="st14" points="198.5,150.5 198.5,150.5 198.7,150.3 	"/>
	<polygon class="st10" points="168,217 181,225 219,225 229,211 229,182 198,151 168,181.5 	"/>
	<polygon class="st10" points="198.5,150.5 198.7,150.3 228.2,120.3 228.7,120.3 229,120 229,90 219,75 179,75 168,86 168,120.8 
		168.3,120.8 	"/>
	<polygon class="st10" points="198,151 168,121 168,120.8 132.3,121 124.4,134.1 124.7,172.1 138.8,182 167.8,181.8 168,181.5 
		168,181 	"/>
	
		<rect x="197.9" y="150.7" transform="matrix(0.7071 -0.7071 0.7071 0.7071 -48.5316 184.3409)" class="st10" width="0.7" height="0"/>
	<polygon class="st10" points="274.3,130.9 263.2,120 228.7,120.3 198.7,150.3 198.5,150.5 229.7,181.3 259.7,181 274.7,170.9 	"/>
	<polygon class="st10" points="198.7,150.3 228.7,120.3 228.2,120.3 	"/>
	<polygon class="st10" points="198,151 198.5,150.5 168.3,120.8 168,120.8 168,121 	"/>
	<polygon class="st10" points="168,181 168,181.5 198,151 198,151 	"/>
	<path class="st8" d="M183,88h20c2.8,0,5,2.2,5,5v20c0,2.8-2.2,5-5,5h-20c-2.8,0-5-2.2-5-5V93C178,90.2,180.2,88,183,88z"/>
	<path class="st8" d="M136,135h20c2.8,0,5,2.2,5,5v20c0,2.8-2.2,5-5,5h-20c-2.8,0-5-2.2-5-5v-20C131,137.2,133.2,135,136,135z"/>
	<path class="st8" d="M232,135h20c2.8,0,5,2.2,5,5v20c0,2.8-2.2,5-5,5h-20c-2.8,0-5-2.2-5-5v-20C227,137.2,229.2,135,232,135z"/>
	<path class="st8" d="M183,181h20c2.8,0,5,2.2,5,5v20c0,2.8-2.2,5-5,5h-20c-2.8,0-5-2.2-5-5v-20C178,183.2,180.2,181,183,181z"/>
	<path class="st3" d="M238,135h20c2.8,0,5,2.2,5,5v20c0,2.8-2.2,5-5,5h-20c-2.8,0-5-2.2-5-5v-20C233,137.2,235.2,135,238,135z"/>
	<path class="st3" d="M193,88h20c2.8,0,5,2.2,5,5v20c0,2.8-2.2,5-5,5h-20c-2.8,0-5-2.2-5-5V93C188,90.2,190.2,88,193,88z"/>
	<path class="st3" d="M143,136h20c2.8,0,5,2.2,5,5v20c0,2.8-2.2,5-5,5h-20c-2.8,0-5-2.2-5-5v-20C138,138.2,140.2,136,143,136z"/>
	<path class="st3" d="M191,181h20c2.8,0,5,2.2,5,5v20c0,2.8-2.2,5-5,5h-20c-2.8,0-5-2.2-5-5v-20C186,183.2,188.2,181,191,181z"/>
</g>
<path class="st8" d="M738,67h20c2.8,0,5,2.2,5,5v20c0,2.8-2.2,5-5,5h-20c-2.8,0-5-2.2-5-5V72C733,69.2,735.2,67,738,67z"/>
<path class="st8" d="M671,129h20c2.8,0,5,2.2,5,5v20c0,2.8-2.2,5-5,5h-20c-2.8,0-5-2.2-5-5v-20C666,131.2,668.2,129,671,129z"/>
<path class="st8" d="M799,130h20c2.8,0,5,2.2,5,5v20c0,2.8-2.2,5-5,5h-20c-2.8,0-5-2.2-5-5v-20C794,132.2,796.2,130,799,130z"/>
<path class="st8" d="M738,189h20c2.8,0,5,2.2,5,5v20c0,2.8-2.2,5-5,5h-20c-2.8,0-5-2.2-5-5v-20C733,191.2,735.2,189,738,189z"/>
<path class="st3" d="M743,67h20c2.8,0,5,2.2,5,5v20c0,2.8-2.2,5-5,5h-20c-2.8,0-5-2.2-5-5V72C738,69.2,740.2,67,743,67z"/>
<path class="st3" d="M806,130h20c2.8,0,5,2.2,5,5v20c0,2.8-2.2,5-5,5h-20c-2.8,0-5-2.2-5-5v-20C801,132.2,803.2,130,806,130z"/>
<path class="st3" d="M743,189h20c2.8,0,5,2.2,5,5v20c0,2.8-2.2,5-5,5h-20c-2.8,0-5-2.2-5-5v-20C738,191.2,740.2,189,743,189z"/>
<path class="st3" d="M680,129h20c2.8,0,5,2.2,5,5v20c0,2.8-2.2,5-5,5h-20c-2.8,0-5-2.2-5-5v-20C675,131.2,677.2,129,680,129z"/>
<g id="Carrés-bleu">
	<path class="st3" d="M948,377h15c2.8,0,5,2.2,5,5v15c0,2.8-2.2,5-5,5h-15c-2.8,0-5-2.2-5-5v-15C943,379.2,945.2,377,948,377z"/>
	<path class="st3" d="M942,262h3c2.8,0,5,2.2,5,5v3c0,2.8-2.2,5-5,5h-3c-2.8,0-5-2.2-5-5v-3C937,264.2,939.2,262,942,262z"/>
	<path class="st3" d="M361,0h8c2.8,0,5,2.2,5,5v8c0,2.8-2.2,5-5,5h-8c-2.8,0-5-2.2-5-5V5C356,2.2,358.2,0,361,0z"/>
	<path class="st3" d="M325,393h8c2.8,0,5,2.2,5,5v8c0,2.8-2.2,5-5,5h-8c-2.8,0-5-2.2-5-5v-8C320,395.2,322.2,393,325,393z"/>
	<path class="st3" d="M85,75h15c2.8,0,5,2.2,5,5v15c0,2.8-2.2,5-5,5H85c-2.8,0-5-2.2-5-5V80C80,77.2,82.2,75,85,75z"/>
	<path class="st3" d="M303,6h3c2.8,0,5,2.2,5,5v3c0,2.8-2.2,5-5,5h-3c-2.8,0-5-2.2-5-5v-3C298,8.2,300.2,6,303,6z"/>
	<path class="st3" d="M273,470h3c2.8,0,5,2.2,5,5v3c0,2.8-2.2,5-5,5h-3c-2.8,0-5-2.2-5-5v-3C268,472.2,270.2,470,273,470z"/>
	<path class="st3" d="M259,534h3c2.8,0,5,2.2,5,5v3c0,2.8-2.2,5-5,5h-3c-2.8,0-5-2.2-5-5v-3C254,536.2,256.2,534,259,534z"/>
	<path class="st3" d="M861,85h8c2.8,0,5,2.2,5,5v8c0,2.8-2.2,5-5,5h-8c-2.8,0-5-2.2-5-5v-8C856,87.2,858.2,85,861,85z"/>
</g>
<g id="Carrés-roses">
	<path class="st8" d="M11,345h15c2.8,0,5,2.2,5,5v15c0,2.8-2.2,5-5,5H11c-2.8,0-5-2.2-5-5v-15C6,347.2,8.2,345,11,345z"/>
	<path class="st8" d="M22,188h8c2.8,0,5,2.2,5,5v8c0,2.8-2.2,5-5,5h-8c-2.8,0-5-2.2-5-5v-8C17,190.2,19.2,188,22,188z"/>
	<path class="st8" d="M635,393h8c2.8,0,5,2.2,5,5v8c0,2.8-2.2,5-5,5h-8c-2.8,0-5-2.2-5-5v-8C630,395.2,632.2,393,635,393z"/>
	<path class="st8" d="M5,430h3c2.8,0,5,2.2,5,5v3c0,2.8-2.2,5-5,5H5c-2.8,0-5-2.2-5-5v-3C0,432.2,2.2,430,5,430z"/>
</g>
<g id="Carrés-blancs">
	<path class="st11" d="M629,13h3c2.8,0,5,2.2,5,5v3c0,2.8-2.2,5-5,5h-3c-2.8,0-5-2.2-5-5v-3C624,15.2,626.2,13,629,13z"/>
	<path class="st11" d="M692,507h3c2.8,0,5,2.2,5,5v3c0,2.8-2.2,5-5,5h-3c-2.8,0-5-2.2-5-5v-3C687,509.2,689.2,507,692,507z"/>
	<path class="st11" d="M461,372h8c2.8,0,5,2.2,5,5v8c0,2.8-2.2,5-5,5h-8c-2.8,0-5-2.2-5-5v-8C456,374.2,458.2,372,461,372z"/>
</g>
</svg>
