<?xml version="1.0" encoding="utf-8"?>
<!-- Generator: Adobe Illustrator 25.2.1, SVG Export Plug-In . SVG Version: 6.00 Build 0)  -->
<svg version="1.1" id="Calque_1" xmlns="http://www.w3.org/2000/svg" xmlns:xlink="http://www.w3.org/1999/xlink" x="0px" y="0px"
	 viewBox="0 0 500 500" style="enable-background:new 0 0 500 500;" xml:space="preserve">
<style type="text/css">
	.st0{fill:none;}
	.st1{fill:#8080FF;stroke:#EEF0F2;stroke-miterlimit:10;}
	.st2{fill:#8080FF;stroke:#EEF0F2;stroke-width:3;stroke-linecap:round;stroke-linejoin:round;stroke-miterlimit:10;}
	.st3{fill:none;stroke:#EEF0F2;stroke-width:3;stroke-linecap:round;stroke-linejoin:round;}
	.st4{fill:none;stroke:#EEF0F2;stroke-width:3;stroke-miterlimit:10;}
	.st5{fill:#EEF0F2;}
</style>
<g id="Layer_3">
	<path class="st0" d="M130.6,412.3c1,3.7,9.5,32.3,39,44.9c3.5,1.5,7.1,2.7,10.8,3.5C145.6,451.3,130.6,412.3,130.6,412.3z"/>
	<path class="st0" d="M113.6,286.5c0,0,6.3-31.3,17.4-46.3C120.5,253.5,114.4,269.7,113.6,286.5z"/>
	<path class="st0" d="M439.4,351.5c10.7-50.6-21.6-100.3-72.2-111c-4-0.9-8.1-1.4-12.3-1.8C430.4,253.2,447.4,309.5,439.4,351.5z"/>
	<path class="st0" d="M113.6,286.5C88.7,306.1,78,337.8,86.4,366c9.7,32.4,40.2,44.8,44.1,46.3C36.6,356.1,113.6,286.5,113.6,286.5z
		"/>
	<path class="st0" d="M331.4,220.5l23.5,18.2C348.2,231.3,340.3,225.2,331.4,220.5z"/>
	<polygon class="st0" points="331.4,220.5 331.4,220.5 331.4,220.5 	"/>
	<path class="st0" d="M270.6,215.2c-10.1,3.1-19.7,8-28.2,14.3l0.1,0.1L270.6,215.2z"/>
	<path class="st0" d="M283.4,468.6c13.5,1.9,27.3,1.3,40.6-1.8c47.9-11.1,70.1-49,73.6-55.2C362.1,464.9,317.3,472.7,283.4,468.6z"
		/>
	<path class="st1" d="M180.4,460.7c14.3,3.9,31.8,2.8,53.1-8c15.5,8.4,32.4,13.8,49.9,15.9c-17.3-2.4-33.8-8.5-48.4-18
		C233.1,451.8,209.2,467.4,180.4,460.7z"/>
	<path class="st1" d="M397.6,411.6c0,0,30.2-17.2,39.9-52.1c0.7-2.6,1.4-5.3,1.9-8C434.1,376.3,419.1,398,397.6,411.6z"/>
	<path class="st1" d="M242.4,229.4c-1.7-1-26.4-15.5-40.4-16.7l-0.3,0.3c14.3,2.6,27.7,8.7,39.2,17.6L242.4,229.4z"/>
	<path class="st2" d="M439.4,351.5c8-42-9-98.2-84.5-112.8l-23.5-18.2l0,0c0,0.2,1,29-19.4,30.5l-8.4-5.1l-4.6,5l-11.7-4.9l-2.8-5.4
		l-7-0.2c0,0-11.7-4.7-6-25.6l-1,0.3l-28.1,14.4l-0.1-0.1l-1.5,1.2c-11.5-8.9-24.9-15-39.2-17.6l-4.2,3.5l-1.9,8.4l-12.2,5.7
		l-4.9,6.9l-10.9,3.6l-2.8-7l-8.6,7l-12.7-4.6l-2.3-3.9c-2.9,0.7-5.4,2.2-7.4,4.4c-1,1.1-1.9,2.2-2.8,3.3
		c-11.1,15-17.4,46.3-17.4,46.3s-77,69.6,16.9,125.8c0,0,15,39,49.8,48.4c28.8,6.7,52.7-8.9,54.6-10.1c14.6,9.5,31.1,15.6,48.4,18
		c33.9,4.2,78.7-3.6,114.2-57C419.1,398,434.1,376.3,439.4,351.5z M234.5,290.9c5.6,0,10.1,9.7,10.1,21.7s-4.5,21.7-10.1,21.7
		s-10.1-9.7-10.1-21.7S228.9,290.9,234.5,290.9z M190.3,290.9c5.6,0,10.1,9.7,10.1,21.7s-4.5,21.7-10.1,21.7s-10.1-9.7-10.1-21.7
		S184.7,290.9,190.3,290.9z M212.2,371.1c-10.1-0.7-19.7-4.9-27.2-11.8C192.5,366.3,202.1,370.4,212.2,371.1
		c17.4,1.1,29.2-8.6,31.6-10.7C241.4,362.5,229.6,372.2,212.2,371.1z M242,347.2c-0.4,9.2,1.1,16.5,10.7,23.9
		C243.1,363.8,241.6,356.4,242,347.2z"/>
	<g id="Main">
		<path class="st3" d="M285.5,241.5c-18-1-15.7-16.4-13.1-26.2c3.7-13.8,21.7-18.4,34.1-15.8c10.4,2.1,20.8,10,23.9,22
			c2.8,10.7-1.6,19.6-2.9,22c-3.5,6.8-11.8,9.5-18.6,6c-5.2-2.6-8.1-8.2-7.4-14c1.6,9.4,1.6,14.4,0,15c-2.3,0.8-20,3-17-26"/>
		<path class="st3" d="M184,232c1.2-0.7,17-1,15-20c-1.5-13.9-19.9-25-36-22c-12.7,2.4-24.8,13.8-25,27c-0.2,11.7,8.9,25,17,24
			c6.7-0.9,10.4-11.2,11-13c-0.6,8,0.1,12.3,2,13c2.8,0.9,21-2,16-20"/>
	</g>
	<g id="Kopa">
		<path class="st3" d="M174,188.7c-2.9-12.4-2.1-25.3,2.5-37.2c-1.4-1.6-13.1-15.8-9-34c3.5-15.5,17.1-27.6,34-30
			c3.3-4.1,24-29,55-29c34.1,0,67.4,30.3,74,74l8,19c22.7,8.8,36.7,31.8,34,56c6.4,6.5,7.9,16,4,23c-4,7.3-12,8.9-13.2,9.1"/>
		<path class="st3" d="M215.5,41.5c2-0.4,12.3-2.4,22,4c4.9,3.3,8.7,8,10.8,13.6"/>
		<path class="st3" d="M237.5,13.5c10.7,12.7,17.4,28.4,19,45"/>
		<path class="st3" d="M290.5,35.5c-13.9-0.8-25.8,9.6-27,23.4"/>
		<path class="st3" d="M174.6,149c0.9,1.2,11.6,12.1,29.9,10.5c14.1-1.3,23.4-13,25-15c0.8,1,17.5,19.1,37,16
			c15.8-2.5,25.6-13.9,28-31c0.2-20.2-13.9-36.7-31-39c-12.7-1.7-25.9,4.6-34,16c-8-18-22-19-30.5-18.6"/>
		<path class="st3" d="M234.3,174.9c-6.1,2.5-12.9-0.9-14.4-6.5c-1.5-5.3,2.1-11.3,7.8-12.6c5.6-1.3,11.2,2.2,12.6,7.8"/>
		<ellipse class="st4" cx="213.5" cy="137" rx="6" ry="9.5"/>
		<ellipse class="st4" cx="253" cy="137.5" rx="6" ry="9.5"/>
		<path class="st3" d="M256,178c-1.5,4.5-0.5,7.5,1,11c2.5,3.5,4.5,5.5,7,6"/>
		<path class="st3" d="M225.5,194.5c4.6,2.6,9.8,3.6,15,3c6.3-0.9,12-4.1,16-9"/>
		<path class="st3" d="M320.4,203.6c14.5-13.2,21.3-32.8,18.1-52.1"/>
		<path class="st3" d="M371.2,188.5c-12.6,4.2-26.4,0-34.5-10.5"/>
		<path class="st3" d="M325.9,197.8c12.4,11.1,29.6,15.1,45.6,10.7"/>
		<path class="st5" d="M296,124h13c1.7,0,3,1.3,3,3v7c0,1.7-1.3,3-3,3h-13c-1.7,0-3-1.3-3-3v-7C293,125.3,294.3,124,296,124z"/>
	</g>
</g>
</svg>
