<svg id="Calque_1" data-name="Calque 1" xmlns="http://www.w3.org/2000/svg" viewBox="0 0 500 500"><defs><style>.cls-1,.cls-4,.cls-5{fill:none;}.cls-2,.cls-3{fill:#8080ff;}.cls-2,.cls-3,.cls-4,.cls-5{stroke:#eef0f2;}.cls-2,.cls-5{stroke-miterlimit:10;}.cls-3,.cls-4{stroke-linecap:round;stroke-linejoin:round;}.cls-3,.cls-4,.cls-5{stroke-width:3px;}.cls-6{fill:#eef0f2;}</style></defs><g id="Layer_3" data-name="Layer 3"><path class="cls-1" d="M130.56,412.31c1,3.72,9.54,32.32,39,44.88a64.41,64.41,0,0,0,10.84,3.52C145.59,451.3,130.56,412.31,130.56,412.31Z"/><path class="cls-1" d="M113.64,286.52s6.28-31.29,17.36-46.26A80.19,80.19,0,0,0,113.64,286.52Z"/><path class="cls-1" d="M439.38,351.46A93.63,93.63,0,0,0,354.93,238.7C430.36,253.23,447.37,309.49,439.38,351.46Z"/><path class="cls-1" d="M113.64,286.52C88.72,306.09,78,337.82,86.42,366c9.69,32.37,40.18,44.8,44.14,46.34C36.62,356.12,113.64,286.52,113.64,286.52Z"/><path class="cls-1" d="M331.42,220.53l23.51,18.17A85.75,85.75,0,0,0,331.42,220.53Z"/><path class="cls-1" d="M270.58,215.15a93.57,93.57,0,0,0-28.18,14.29l.1.06Z"/><path class="cls-1" d="M283.41,468.58A111.1,111.1,0,0,0,324,466.75c47.9-11.13,70.1-49,73.57-55.17C362.12,464.93,317.26,472.74,283.41,468.58Z"/><path class="cls-2" d="M180.39,460.71c14.26,3.86,31.84,2.76,53.08-8a141.92,141.92,0,0,0,49.94,15.91,119.35,119.35,0,0,1-48.39-18C233.13,451.84,209.21,467.38,180.39,460.71Z"/><path class="cls-2" d="M397.6,411.58s30.16-17.16,39.9-52.08q1.1-3.92,1.88-8A94.12,94.12,0,0,1,397.6,411.58Z"/><path class="cls-2" d="M242.4,229.44c-1.67-1-26.39-15.48-40.4-16.69l-.31.26a90.62,90.62,0,0,1,39.21,17.6Z"/><path class="cls-3" d="M439.38,351.46c8-42-9-98.23-84.45-112.76l-23.51-18.17h0c0,.22,1,29-19.38,30.49L303.61,246,299,251l-11.7-4.92-2.77-5.41-7-.17s-11.68-4.73-5.95-25.64l-1,.29L242.5,229.5l-.1-.06-1.5,1.17A90.63,90.63,0,0,0,201.69,213l-4.19,3.49-1.86,8.42-12.25,5.69-4.89,6.89-10.91,3.61-2.78-7-8.65,7-12.66-4.6-2.34-3.89a14.21,14.21,0,0,0-7.38,4.37c-1,1.07-1.89,2.17-2.78,3.28-11.08,15-17.36,46.26-17.36,46.26s-77,69.6,16.92,125.79c0,0,15,39,49.83,48.4,28.82,6.67,52.74-8.87,54.63-10.14a119.35,119.35,0,0,0,48.39,18c33.85,4.16,78.71-3.65,114.19-57A94.06,94.06,0,0,0,439.38,351.46ZM234.47,290.93c5.58,0,10.11,9.72,10.11,21.7s-4.53,21.71-10.11,21.71-10.12-9.72-10.12-21.71S228.88,290.93,234.47,290.93Zm-44.14,0c5.58,0,10.11,9.72,10.11,21.7s-4.53,21.71-10.11,21.71-10.12-9.72-10.12-21.71S184.74,290.93,190.33,290.93Zm21.88,80.19A44.78,44.78,0,0,1,185,359.35a44.73,44.73,0,0,0,27.22,11.77c17.39,1.1,29.22-8.65,31.63-10.72C241.43,362.47,229.6,372.22,212.21,371.12ZM242,347.21c-.37,9.2,1.1,16.55,10.66,23.91C243.11,363.76,241.64,356.41,242,347.21Z"/><g id="Main"><path class="cls-4" d="M285.5,241.5c-18-1-15.74-16.43-13.12-26.17,3.7-13.78,21.72-18.36,34.12-15.83,10.36,2.12,20.78,10,23.88,22,2.76,10.69-1.6,19.59-2.88,22a13.81,13.81,0,0,1-26-8q2.37,14.16,0,15c-2.3.82-20,3-17-26"/><path class="cls-4" d="M184,232c1.16-.67,17-1,15-20-1.47-13.94-19.92-25-36-22-12.73,2.36-24.81,13.75-25,27-.17,11.69,8.9,25,17,24,6.68-.86,10.39-11.22,11-13q-.87,12,2,13c2.75.93,21-2,16-20"/></g><g id="Kopa"><path class="cls-4" d="M174,188.72a63.52,63.52,0,0,1,2.47-37.22c-1.38-1.6-13.12-15.76-9-34,3.51-15.51,17.06-27.58,34-30,3.34-4.13,24-29,55-29,34.14,0,67.43,30.27,74,74l8,19a53.69,53.69,0,0,1,34,56c6.37,6.54,7.87,16,4,23-4,7.26-12,8.85-13.24,9.07"/><path class="cls-4" d="M215.5,41.5c2-.43,12.3-2.42,22,4a28.79,28.79,0,0,1,10.82,13.58"/><path class="cls-4" d="M237.5,13.5a82.55,82.55,0,0,1,19,45"/><path class="cls-4" d="M290.5,35.5a25.61,25.61,0,0,0-27,23.43"/><path class="cls-4" d="M174.6,149c.93,1.16,11.6,12.15,29.9,10.46,14.13-1.3,23.4-13,25-15,.83,1,17.47,19.12,37,16,15.78-2.52,25.58-13.88,28-31,.18-20.24-13.9-36.71-31-39-12.74-1.7-25.87,4.63-34,16-8-18-22-19-30.51-18.56"/><path class="cls-4" d="M234.27,174.87c-6.15,2.5-12.87-.92-14.43-6.46-1.5-5.31,2.1-11.31,7.81-12.65a10.65,10.65,0,0,1,12.65,7.81"/><ellipse class="cls-5" cx="213.5" cy="137" rx="6" ry="9.5"/><ellipse class="cls-5" cx="253" cy="137.5" rx="6" ry="9.5"/><path class="cls-4" d="M256,178c-1.5,4.5-.5,7.5,1,11,2.5,3.5,4.5,5.5,7,6"/><path class="cls-4" d="M225.5,194.5a24.6,24.6,0,0,0,15,3,25,25,0,0,0,16-9"/><path class="cls-4" d="M320.38,203.64A57.63,57.63,0,0,0,338.5,151.5"/><path class="cls-4" d="M371.19,188.51A31.17,31.17,0,0,1,336.71,178"/><path class="cls-4" d="M325.92,197.84A49,49,0,0,0,371.5,208.5"/><rect class="cls-6" x="293" y="124" width="19" height="13" rx="3"/></g></g></svg>