<svg id="Calque_1" data-name="Calque 1" xmlns="http://www.w3.org/2000/svg" viewBox="0 0 850.39 850.39"><defs><style>.cls-1{fill:#ffc100;}.cls-2{fill:#282828;}</style></defs><path class="cls-1" d="M449.27,751.08c-85.24,0-165.39-33.9-225.67-95.46s-93.51-143.45-93.51-230.54,33.21-169,93.51-230.54S364,99.08,449.27,99.08c53.77,0,107.09,10.92,150.14,30.75,47.45,21.85,82.55,54.29,101.66,93.92L685,234.56c-31.61,21.26-97.39,65.49-155.62,106C419.34,417.1,419.75,422.05,420,425.33c.19,2.29.32,3.95,40.47,28.33,23.6,14.33,55.18,32.94,88.62,52.63C614.81,545,704,597.54,713.7,607.76c-23.72,36.67-62.91,72.49-107.8,98.46C555.18,735.57,501,751.08,449.27,751.08Z"/><path class="cls-1" d="M449.27,102.08a392.65,392.65,0,0,1,76.89,7.5,324.54,324.54,0,0,1,72,23c23.09,10.64,43.27,23.77,60,39a176.18,176.18,0,0,1,39.07,51.12c-3.19,2.16-8.05,5.43-13.86,9.34-31.61,21.26-97.4,65.5-155.66,106-32.62,22.69-58.27,41-76.22,54.44-35,26.22-34.77,29.09-34.44,33.06s.45,5.47,41.91,30.65c23.6,14.33,55.2,32.94,88.65,52.65,38.13,22.46,77.56,45.68,108.63,64.63,35.69,21.76,48.86,30.92,53.54,34.78-11.25,17-25.61,33.55-42.74,49.37a352.85,352.85,0,0,1-62.63,46c-50.26,29.08-103.91,44.45-155.13,44.45a308.49,308.49,0,0,1-123-25.36,314.84,314.84,0,0,1-100.5-69.2A322.52,322.52,0,0,1,158,550.85a330.55,330.55,0,0,1,0-251.53,322.56,322.56,0,0,1,67.79-102.68,315,315,0,0,1,100.5-69.19,308.5,308.5,0,0,1,123-25.37m0-6c-177.93,0-322.18,147.3-322.18,329s144.25,329,322.18,329c111.66,0,220.75-72,267.86-146.11,5.22-8.22-293.44-174.85-294.11-182.89-1-12,282-200,281.85-200.32C663.68,135.91,553.39,96.08,449.27,96.08Z"/><circle class="cls-2" cx="508.52" cy="234.58" r="42.5"/></svg>