<svg id="Calque_1" data-name="Calque 1" xmlns="http://www.w3.org/2000/svg" viewBox="0 0 850.39 850.39"><defs><style>.cls-1{fill:#ffc100;}.cls-2{fill:#282828;}</style></defs><path class="cls-1" d="M456.5,753A327.5,327.5,0,1,1,784,422.85L421.54,468.29l347.6,71C727.66,669.23,605.33,753,456.5,753Z"/><path class="cls-1" d="M456.5,101A324.22,324.22,0,0,1,781,420.21L439.25,463.05l-36.18,4.53,35.73,7.3,326.45,66.66c-20.44,61.69-59.64,113.68-113.7,150.66C596.28,730,528.83,750,456.5,750a324.5,324.5,0,1,1,0-649m0-6C274,95,126,243,126,425.5S274,756,456.5,756c148.69,0,275-83.92,316.5-219L440,469l347-43.5C787,243,639,95,456.5,95Z"/><circle class="cls-2" cx="508.52" cy="234.58" r="42.5"/></svg>