<svg id="Calque_1" data-name="Calque 1" xmlns="http://www.w3.org/2000/svg" viewBox="0 0 850.39 850.39"><defs><style>.cls-1{fill:#ffc100;}.cls-2{fill:#282828;}</style></defs><path class="cls-1" d="M429.72,752.58A327.49,327.49,0,0,1,198.15,193.51,325.32,325.32,0,0,1,429.72,97.58c43,0,82.46,6,117.2,17.69A269.24,269.24,0,0,1,631,161.37c39.2,31.9,70.34,75.85,95.14,134.29L406.25,469l311.9,128.71c-13,32.3-49.74,70.05-96.74,99.21C563.51,732.8,495.43,752.58,429.72,752.58Z"/><path class="cls-1" d="M429.72,100.58c42.7,0,81.81,5.9,116.24,17.53a266,266,0,0,1,83.19,45.59c38.24,31.12,68.77,73.89,93.2,130.62l-312,169-11.09,6,11.66,4.81L714.21,599.28c-6.1,13.78-16.73,28.92-31,44.12-17.2,18.28-39.1,35.88-63.34,50.92a372.83,372.83,0,0,1-86.71,39.45,351,351,0,0,1-103.4,15.81,324.5,324.5,0,1,1,0-649m0-6c-182.53,0-330.5,148-330.5,330.5s148,330.5,330.5,330.5C578.41,755.58,699,659,722,596L413.22,468.58,730,297C689,199,612.25,94.58,429.72,94.58Z"/><circle class="cls-2" cx="476.74" cy="234.17" r="42.5"/></svg>