<?xml version="1.0" encoding="utf-8"?>
<!-- Generator: Adobe Illustrator 25.2.1, SVG Export Plug-In . SVG Version: 6.00 Build 0)  -->
<svg version="1.1" id="Calque_1" xmlns="http://www.w3.org/2000/svg" xmlns:xlink="http://www.w3.org/1999/xlink" x="0px" y="0px"
	 viewBox="0 0 716.1 618.2" style="enable-background:new 0 0 716.1 618.2;" xml:space="preserve">
<style type="text/css">
	.st0{fill:#8080FF;stroke:#EEF0F2;stroke-width:5;stroke-miterlimit:10;}
	.st1{fill:none;stroke:#EEF0F2;stroke-width:5;stroke-miterlimit:10;}
	.st2{fill:#80FFFF;stroke:#EEF0F2;stroke-width:5;stroke-miterlimit:10;}
</style>
<g id="Calque_4">
	<path class="st0" d="M472.7,182.3c0,0,6.2,12.4-12.4,3.1c-10.9-5.3-22.4-9.3-34.2-11.9c-3-0.5,0-24.2,0-24.2l-6.1-38.2l-9.3-21.7
		c0,0-20.8-23.2-35.2-25.5s-32.6,0-32.6,0s-44.5,9.1-56.5,54.4s26.1,95.3,26.1,95.3L280.8,238l-66.4,76.5l-24.9,42.9L160,343.3
		l-3.1,3.1l28.1,19.8l-21.9,23.5l1,4.3l-44-11.6l-9.5-21.6c-4.6-10.5-5.1-22.3-1.5-33.2l11-33c0,0-6-181.5,63.4-243
		c0,0,72.6-83.1,171.4-33.2C381.2,31.8,414,33.6,458,100.1C457.9,100.1,478,140.9,472.7,182.3z"/>
	<path class="st0" d="M216.7,311.8c0,0-0.4,13.1,13.3,13s46.1-21.6,46.1-21.6l104.9-59.9l53.4-29.8c0,0,32.8-13.2,55.8-12.9
		s-23-11-23-11l-26.3-10.5c0,0-24.3-6.9-42.5-0.3s-94.3,41.6-94.3,41.6l-44.7,39.3L216.7,311.8z"/>
	<path class="st0" d="M496.5,198.9c0,0,14.8-0.6,14.1,14.6S488.8,229,488.8,229h-29l-10.9-6.3l-12.4,2.4l-10.4,9.9l-0.7-12.7
		l25.8-12.9l32.6-8.6L496.5,198.9"/>
</g>
<g id="Calque_3">
	<path class="st1" d="M237.6,532.8c-11.8,1.7-26-0.5-32.6-1.7c-2.4-0.5-4.7-1.6-6.5-3.2c-41.3-37.6-56.1-34.7-56.1-34.7
		c-81.4,0-127.2-78-139.2-101.6c-1.5-3-0.3-6.6,2.7-8c0.4-0.2,0.9-0.4,1.3-0.5c42.4-9.5,83.3-6,112.8-0.6l0,0
		c26.8,5,44,11.6,44,11.6c5.7,12.8,16.3,21.7,21.7,31c5,8.7,9.8,16,14.1,22.1c19.8,27.6,32.9,32.5,37.2,33.4c1,0.2,1.9,0.8,2.5,1.6
		c1,1.3,1.9,2.5,2.8,3.7c0,0,0,0,0,0.1c1.7,2.3,3.2,4.5,4.5,6.5c2.4,3.6,4.5,7.4,6.3,11.4C261.7,523.7,251.2,530.9,237.6,532.8z"/>
	<path class="st1" d="M199.8,447.2c0,0-39.2-15-56.1,0S43.3,415.8,40.2,412.7"/>
	<path class="st1" d="M143.8,447.2c0,0,31.1,39.2,70.6,17.8"/>
	<path class="st1" d="M188.8,366.2l-0.1,0.1"/>
	<path class="st1" d="M429.2,377.1V391c0,1.9-0.9,3.7-2.5,4.8l-48.5,35.5c0,0,0,0-0.1,0l-44.5,32.5c-2,1.4-4.7,1.4-6.7,0l-6.7-4.7
		L256.2,414l-7.5-5.2c-0.1,0-0.1-0.1-0.1-0.1l-59.9-42.3l-30.8-21.7l31.6,15.9l138.2,69.6c1.6,0.8,3.6,0.8,5.2-0.1L429.2,377.1z"/>
	<path class="st1" d="M330.3,7.1C103.3-36.2,120,294.7,120,294.7c-31,51.2-1.3,86.3,0,87.8l0,0c26.8,5,44,11.6,44,11.6
		c4.7-11.9,13.4-21.7,24.6-27.7l-30.8-21.7l31.6,15.9c38-75.4,84.8-120.2,126.9-146.9c37.2-23.6,70.7-33,91.4-36.8
		c12.6-2.2,25.6-0.9,37.4,4l29.8,12.1C485.3,44.2,330.3,7.1,330.3,7.1z M377,103.6c-8.9,1.2-26,4.3-22.9,9.4
		c4.9,7.8,16.2,38.9,19.8,52.5c0.7,2.7-0.6,5.4-3.2,6.6c-8,3.6-20.9,11.5-20.9,8.4c0-18.8-12.4-40.2-30.9-78.3
		c-1.4-2.8-0.2-6.2,2.6-7.5c0.2-0.1,0.4-0.2,0.7-0.3l47.4-16c1.6-0.5,3.3,0.3,3.9,1.8l6.7,18c0.8,2.1-0.3,4.5-2.4,5.2
		C377.5,103.5,377.3,103.5,377,103.6z"/>
	<path class="st1" d="M426.2,219.6c19.6-10.2,49.7-23.5,81.6-17.5l-32.9-9.3l-29.8-12.1c-11.8-4.9-24.8-6.2-37.4-4
		c-20.7,3.9-54.2,13.2-91.4,36.9c-42.1,26.7-88.2,70.9-126.9,146.9l138.2,69.6c1.6,0.8,3.6,0.8,5.2-0.1l96.3-52.9
		c0,0-36,4.6-42.2-20.2s12.4-77.4,68.1-77.4v-11.6c0,0-6.2-13.2-10.3-18.3s-10.6-0.1-10.6-0.1s-10,33-16.2,30
		c-4-2,0.6-26.8,4.4-43.8C424.4,226.6,426.2,219.6,426.2,219.6z M378.1,294.9c0,0,24.4,46.5-47.8,76.6s-96.2-42-96.2-42l-19.8,23.7
		l1.2-34.4c0-0.7,0.6-1.2,1.3-1.2c0.4,0,0.7,0.2,0.9,0.4c4.4,5,13.2,11.7,28.9,4.2c3.3-1.5,6.4-3.3,9.5-5.2
		c11.2-7.1,31-18.6,52.6-31l0,0c8.8-5,17.8-10.2,26.8-15.2l0,0c1.5,0.3,57.5,12,57.5,21.1C393.2,297.1,385.2,296.5,378.1,294.9
		L378.1,294.9z M436.5,270.2c3.4,0,6.2,3.5,6.2,7.7c0,1.5-2.8,1.5-6.2,1.5s-6.2,4.3-6.2,0S433.1,270.2,436.5,270.2L436.5,270.2z"/>
	<path class="st1" d="M429.2,377.1c0,0,9.8-18.9,42.7-10.9c1.2,0.3,2.3,0.6,3.5,0.9c6.7,2,13.6,3.5,20.6,4.3c3,0.3,5.9,0.4,8.9,0.1
		c7.9-0.8,8.8-4.4,8.8-4.4c-0.1-1.5-0.2-3-0.3-4.5c-0.4-6.1-1.3-12.1-2.7-18.1c-12.2-53.8-55.5-65-55.5-65"/>
	<path class="st1" d="M455.1,267.9v-41.1l40.3,3.1c27.9-12.4,12.4-27.9,12.4-27.9"/>
	<path class="st1" d="M335.7,270.8c37.7-21.3,73-40.8,73-40.8c5.6-3.8,11.5-7.3,17.5-10.4"/>
	<path class="st1" d="M242.2,485.9c0,0,50,92.4,88.1,80.8c28.8-8.7,64.7-3.7,80.6-0.7c5.2,1,10.1,3,14.5,5.9l69.5,41.2
		c4.3,2.6,9.5,3.3,14.3,2c17.3-4.5,58-16.2,60.5-25.9c2.7-11-30-83.4-37.5-99.9c-0.9-2.1-1-4.4-0.1-6.5c3.3-7.8,10.3-28.7,0.5-48.4
		c-12.4-24.8-85.3,20.9-85.3,20.9s-82.3,48.8-100.7,66.5s-40.1-22.5-40.1-22.5l-13.7-28.7c-0.9-1.9-0.1-4.3,1.8-5.2
		c0.2-0.1,0.5-0.2,0.8-0.3l24.9-6"/>
	<path class="st1" d="M378.1,431.4c0,0,101.8-34.2,114.2-31.1V397c0-2.5,1.2-4.9,3.1-6.5c4.4-3.5,11.7-10.9,9.4-19"/>
	<polyline class="st1" points="513.3,362.7 637.8,326 696.7,329.1 637.8,310.5 510.6,344.5 	"/>
	<path class="st1" d="M308.8,286c14.8-2.8,58.5,5.9,58.5,5.9c3.5,1.2,7.2,2.2,10.8,3.1"/>
	<path class="st1" d="M455.1,232.8c0,0,0-15.2-15.5-9s-17.2,11.9-17.2,11.9"/>
	<path class="st1" d="M246.7,322.3c0,0,26.9,61.7,83.6,40.4s39.8-69.9,39.8-69.9"/>
	<path class="st1" d="M455.1,407.6c0,0-1.5,8.7,3,13.8c1.9,2.2,4.8,3.7,9.4,3.7c15.5,0,27.4-8.8,27.4-8.8s3.5-3.6-2.7-16"/>
	<path class="st1" d="M458.1,421.4c0,0,3.2,6.8-12.2,13s-33.9,12.8-33.9,12.8s-14.7-5.9-5.9-24.9"/>
	<path class="st1" d="M406,442.4c0,0,2.6,10.8-9.8,16.9s-49.5,18.4-49.5,18.4s-11.2-1-16.4-11.3"/>
	<path class="st1" d="M333.9,471.4c0,0,3.5,12.5-8.8,15.6s-22.7,2.7-26.8-4.9"/>
	<path class="st1" d="M318.9,516.5c0,0-9.3-20.3,0-23.4s24.4-13.8,30.8-13s14.3,28.1,14.3,28.1"/>
	<path class="st1" d="M354.1,484.1c0,0,3.8-6.7,18.4-12.7s34.7-18.1,41.6-12.1s7.4,11.6,7.4,11.6"/>
	<path class="st1" d="M414.1,459.3c0,0-7.6-9.4,7.4-15.6s36.7-15.7,44.4-9.4s2.5,9.2,2.5,9.2"/>
	<path class="st1" d="M466,434.3c0,0-2.4-3,7.3-6.1s27.5-13.6,29.5-6.8l1.9,6.8"/>
	<circle class="st1" cx="309.6" cy="322.9" r="15.5"/>
	<circle class="st1" cx="309.6" cy="322.9" r="6.2"/>
	<path class="st1" d="M246.7,492.5c0,0,18.1-62,9.4-78.5c-1.9-3.5-17.8-10.2-24-12.7c-1.4-0.6-2.9-0.5-4.3,0.1
		c-2.8,1.5-8.5,2.9-13.5-5.2c-3.8-6-7.1-12.3-10-18.8"/>
	<path class="st1" d="M237.6,532.8c0,0-14.7,9.9-27.1,13c-5.7,1.4,14.5,5.1,28.3,7.4c11,1.9,22.2,2,33.2,0.2
		c6.7-1.1,13-2.9,15.1-5.9"/>
	<path class="st1" d="M471.8,366.2l2.6,8.2c0.5,1.7,2.3,2.6,4,2.1l17.5-5.1"/>
	<path class="st1" d="M442.7,278c0,1.5-2.8,1.5-6.2,1.5s-6.2,4.3-6.2,0s2.8-9.3,6.2-9.3S442.7,273.7,442.7,278z"/>
	<path class="st1" d="M422.4,174.7c6.2-77.4-23.1-101.8-48.6-108.7c-18.6-5.1-38.5-0.9-54.4,10c-72.1,49.3-3.1,137.6-3.1,137.6"/>
	<path class="st2" d="M377,103.6c-8.9,1.2-26,4.3-22.9,9.4c4.9,7.8,16.2,38.9,19.8,52.5c0.7,2.7-0.6,5.4-3.2,6.6
		c-8,3.6-20.9,11.5-20.9,8.4c0-18.8-12.4-40.2-30.9-78.3c-1.4-2.8-0.2-6.2,2.6-7.5c0.2-0.1,0.4-0.2,0.7-0.3l47.4-16
		c1.6-0.5,3.3,0.3,3.9,1.8l6.7,18c0.8,2.1-0.3,4.5-2.4,5.2C377.5,103.5,377.3,103.5,377,103.6z"/>
	<path class="st1" d="M263.1,554.5v11.1c0,0,52.6,42.2,86.7,32.9c16.2-4.4,24.7-6.6,28.1-8.6c1.5-0.9,2.8-2.3,3.6-3.9l11.7-22.7"/>
</g>
</svg>
