<svg xmlns="http://www.w3.org/2000/svg" viewBox="0 0 850.39 850.39"><defs><style>.cls-1{fill:#8080ff;}.cls-1,.cls-2,.cls-3{stroke:#eef0f2;stroke-miterlimit:10;stroke-width:5px;}.cls-2{fill:none;}.cls-3{fill:#80ffff;}</style></defs><g id="Calque_4" data-name="Calque 4"><path class="cls-1" d="M560.09,268.68s6.19,12.39-12.39,3.1a151.72,151.72,0,0,0-34.18-11.89c-3-.5,0-24.25,0-24.25l-6.07-38.18-9.29-21.68S477.35,152.62,463,150.26s-32.61,0-32.61,0-44.47,9.05-56.48,54.44S400,300,400,300L368.1,324.42l-66.4,76.49-24.93,42.92-29.45-14.12-3.09,3.1,28.12,19.81-21.93,23.54,1,4.33-44-11.58-9.48-21.64a46.24,46.24,0,0,1-1.52-33.2l11-33s-6-181.53,63.42-243c0,0,72.55-83.11,171.37-33.19,26.36,13.31,59.11,15.11,103.15,81.63C545.29,186.56,565.39,227.28,560.09,268.68Z"/><path class="cls-1" d="M304,398.22s-.36,13.1,13.27,13,46.08-21.59,46.08-21.59l104.87-59.88,53.43-29.81s32.84-13.16,55.75-12.92-23.05-11-23.05-11L528,265.52s-24.26-6.94-42.51-.34-94.32,41.58-94.32,41.58l-44.7,39.34Z"/><path class="cls-1" d="M583.84,285.32s14.83-.57,14.12,14.62-21.83,15.47-21.83,15.47h-29l-10.86-6.31-12.4,2.4-10.37,9.92-.67-12.71,25.8-12.9,32.59-8.56,12.6-1.93"/></g><g id="Calque_3" data-name="Calque 3"><path class="cls-2" d="M324.9,619.23c-11.77,1.7-25.95-.47-32.61-1.71a13.19,13.19,0,0,1-6.47-3.25c-41.28-37.62-56.12-34.68-56.12-34.68-81.41,0-127.21-78-139.22-101.63a6,6,0,0,1,4-8.52c42.37-9.48,83.34-6,112.78-.56l0,0c26.78,5,44,11.58,44,11.58,5.7,12.79,16.26,21.68,21.68,31,5,8.67,9.75,16,14.12,22.14C306.84,561.16,320,566.12,324.25,567a4.32,4.32,0,0,1,2.54,1.61q1.44,1.9,2.75,3.68a.09.09,0,0,0,0,.06c1.67,2.3,3.16,4.46,4.49,6.54a80.51,80.51,0,0,1,6.26,11.39C349,610.12,338.58,617.28,324.9,619.23Z"/><path class="cls-2" d="M287.19,533.59s-39.17-15-56.07,0S130.6,502.18,127.5,499.08"/><path class="cls-2" d="M231.12,533.59s31.12,39.17,70.58,17.82"/><path class="cls-2" d="M276.15,452.62l-.15.1"/><path class="cls-2" d="M516.52,463.52v13.94a6,6,0,0,1-2.48,4.83l-48.52,35.52a.09.09,0,0,1-.06,0L421,550.36a5.78,5.78,0,0,1-6.72,0l-6.66-4.71-64.1-45.27L336,495.14a.66.66,0,0,1-.15-.09L276,452.72,245.19,431l31.58,15.91L415,516.51a5.53,5.53,0,0,0,5.2-.09Z"/><path class="cls-2" d="M417.64,93.47c-227-43.29-210.29,287.62-210.29,287.62-31,51.25-1.31,86.34,0,87.79l0,0c26.78,5,44,11.58,44,11.58A53.78,53.78,0,0,1,276,452.72L245.19,431l31.58,15.91c38-75.4,84.79-120.24,126.88-146.9,37.19-23.63,70.72-33,91.41-36.76a67.41,67.41,0,0,1,37.38,4l29.79,12.08C572.69,130.63,417.64,93.47,417.64,93.47ZM464.31,190c-8.89,1.24-26,4.31-22.85,9.42,4.89,7.8,16.25,38.92,19.75,52.49a5.69,5.69,0,0,1-3.16,6.59c-7.95,3.56-20.87,11.46-20.87,8.36,0-18.83-12.38-40.16-30.9-78.34a5.65,5.65,0,0,1,3.31-7.81l47.41-16a3.09,3.09,0,0,1,3.87,1.83l6.72,18A4.09,4.09,0,0,1,464.31,190Z"/><path class="cls-2" d="M513.52,306c19.57-10.22,49.67-23.51,81.59-17.53l-32.88-9.26-29.79-12.08a67.41,67.41,0,0,0-37.38-4C474.37,267,440.84,276.33,403.65,300c-42.09,26.66-88.2,70.91-126.88,146.9L415,516.51a5.53,5.53,0,0,0,5.2-.09l96.31-52.9s-36,4.59-42.18-20.19,12.39-77.41,68.13-77.41V354.34s-6.19-13.2-10.34-18.28-10.59-.09-10.59-.09-10,33-16.23,29.95c-4-2,.65-26.76,4.43-43.79C511.75,313,513.52,306,513.52,306Zm-48.06,75.34s24.37,46.48-47.82,76.55-96.15-42-96.15-42L301.7,439.62l1.24-34.36a1.26,1.26,0,0,1,2.21-.79c4.38,5,13.17,11.69,28.91,4.21a81.09,81.09,0,0,0,9.45-5.23c11.18-7.09,31-18.61,52.64-31h0c8.77-5,17.84-10.16,26.79-15.24h0c1.55.34,57.54,12,57.54,21.12C480.54,383.48,472.55,382.89,465.46,381.37Zm58.43-24.74c3.41,0,6.19,3.46,6.19,7.74,0,1.55-2.78,1.55-6.19,1.55s-6.19,4.27-6.19,0S520.45,356.63,523.89,356.63Z"/><path class="cls-2" d="M516.52,463.52s9.79-18.85,42.67-10.9c1.15.28,2.32.59,3.53.93a120.88,120.88,0,0,0,20.56,4.28,45.22,45.22,0,0,0,8.89.09c7.9-.84,8.77-4.37,8.77-4.37-.07-1.51-.16-3-.28-4.46A124.19,124.19,0,0,0,598,431c-12.17-53.82-55.49-65-55.49-65"/><path class="cls-2" d="M542.47,354.34V313.27l40.26,3.1C610.6,304,595.11,288.5,595.11,288.5"/><path class="cls-2" d="M423,357.18c37.69-21.3,73-40.81,73-40.81A164.82,164.82,0,0,1,513.52,306"/><path class="cls-2" d="M329.53,572.32s50,92.38,88.12,80.79c28.77-8.74,64.74-3.71,80.63-.72a39.64,39.64,0,0,1,14.53,5.92l69.45,41.21a18.62,18.62,0,0,0,14.29,2C613.82,697,654.6,685.34,657,675.6c2.74-11-30-83.38-37.54-99.92a8.05,8.05,0,0,1-.07-6.54c3.3-7.81,10.27-28.72.45-48.38-12.39-24.77-85.29,20.93-85.29,20.93s-82.28,48.75-100.69,66.55-40.08-22.45-40.08-22.45l-13.73-28.65a3.9,3.9,0,0,1,2.61-5.48l24.91-6"/><path class="cls-2" d="M465.45,517.83S567.23,483.6,579.62,486.7v-3.26a8.33,8.33,0,0,1,3.13-6.51c4.43-3.55,11.74-10.86,9.42-19"/><polyline class="cls-2" points="600.65 449.11 725.16 412.38 784 415.47 725.16 396.89 597.96 430.96"/><path class="cls-2" d="M396.18,372.42c14.77-2.79,58.47,5.88,58.47,5.88a100.61,100.61,0,0,0,10.81,3.07"/><path class="cls-2" d="M542.46,319.23s0-15.24-15.49-9-17.24,11.93-17.24,11.93"/><path class="cls-2" d="M334.06,408.69s26.91,61.66,83.59,40.42,39.83-69.86,39.83-69.86"/><path class="cls-2" d="M542.46,494s-1.54,8.67,2.95,13.81c1.89,2.17,4.85,3.7,9.43,3.7,15.49,0,27.44-8.75,27.44-8.75s3.53-3.64-2.66-16"/><path class="cls-2" d="M545.41,507.77s3.24,6.8-12.24,13-33.94,12.83-33.94,12.83-14.7-5.92-5.86-24.86"/><path class="cls-2" d="M493.37,528.8s2.64,10.84-9.75,16.89-49.55,18.43-49.55,18.43-11.16-1-16.42-11.34"/><path class="cls-2" d="M421.23,557.78s3.55,12.53-8.83,15.63-22.72,2.67-26.84-4.86"/><path class="cls-2" d="M406.2,602.9s-9.3-20.33,0-23.36,24.43-13.76,30.8-13,14.32,28.07,14.32,28.07"/><path class="cls-2" d="M441.47,570.48s3.84-6.66,18.35-12.7,34.7-18.14,41.64-12.09,7.41,11.57,7.41,11.57"/><path class="cls-2" d="M501.46,545.69s-7.59-9.42,7.41-15.63,36.68-15.65,44.43-9.38,2.46,9.15,2.46,9.15"/><path class="cls-2" d="M553.3,520.68s-2.4-3,7.31-6.11,27.55-13.59,29.47-6.8l1.92,6.8"/><circle class="cls-2" cx="396.91" cy="409.28" r="15.48"/><circle class="cls-2" cx="396.91" cy="409.28" r="6.19"/><path class="cls-2" d="M334.06,578.89s18.11-62,9.44-78.48c-1.86-3.54-17.75-10.2-24-12.71a5.12,5.12,0,0,0-4.28.15c-2.81,1.47-8.48,2.91-13.5-5.25a141.62,141.62,0,0,1-9.95-18.75"/><path class="cls-2" d="M324.9,619.23s-14.69,9.92-27.08,13c-5.71,1.43,14.45,5.14,28.28,7.41a103,103,0,0,0,33.19.25c6.72-1.09,12.95-2.9,15.09-5.93"/><path class="cls-2" d="M559.19,452.63l2.58,8.21a3.22,3.22,0,0,0,4,2.12l17.53-5.14"/><path class="cls-2" d="M530.08,364.37c0,1.55-2.78,1.55-6.19,1.55s-6.19,4.27-6.19,0,2.75-9.29,6.19-9.29S530.08,360.09,530.08,364.37Z"/><path class="cls-2" d="M509.73,261.13c6.21-77.39-23.09-101.82-48.57-108.73-18.62-5.06-38.49-.9-54.41,10-72.05,49.29-3.12,137.55-3.12,137.55"/><path class="cls-3" d="M464.31,190c-8.89,1.24-26,4.31-22.85,9.42,4.89,7.8,16.25,38.92,19.75,52.49a5.69,5.69,0,0,1-3.16,6.59c-7.95,3.56-20.87,11.46-20.87,8.36,0-18.83-12.38-40.16-30.9-78.34a5.65,5.65,0,0,1,3.31-7.81l47.41-16a3.09,3.09,0,0,1,3.87,1.83l6.72,18A4.09,4.09,0,0,1,464.31,190Z"/><path class="cls-2" d="M350.46,640.9V652s52.65,42.18,86.71,32.89c16.25-4.44,24.74-6.58,28.07-8.6a9.78,9.78,0,0,0,3.59-3.9l11.69-22.67"/></g></svg>