<svg xmlns="http://www.w3.org/2000/svg" viewBox="0 0 850.39 850.39"><defs><style>.cls-1,.cls-3{fill:#d864d8;}.cls-2{fill:none;}.cls-2,.cls-3{stroke:#eef0f2;stroke-miterlimit:10;stroke-width:5px;}</style></defs><g id="Calque_4" data-name="Calque 4"><path class="cls-1" d="M713.35,408.18c-17.76,35.86-42.57,47.38-42.57,47.38L669,397.14v-2l20-47.12,3.62-9.37S733.55,367.4,713.35,408.18Z"/></g><g id="Calque_3" data-name="Calque 3"><circle class="cls-2" cx="300.43" cy="375.07" r="216.08"/><path class="cls-2" d="M457.49,226.67s44.65-75.35,79.15-59.06c0,0,20.12,5.75,19.16,46"/><path class="cls-2" d="M506.45,301.86c-5.09,13,51.57-124.43,91.52-115.08,45,10.54,29.7,129.36-6.71,181.1,0,0-44.3,15.35-75.81-14.36"/><path class="cls-2" d="M488.82,186.15s14-49.73,75.93-49.73c0,0,29.38,2.45,44.71,22.57"/><path class="cls-2" d="M555.85,200.19s17.19-28.56,35.4-34.89l17.29-6a13.55,13.55,0,0,1,2.06-.53c8.94-1.52,68-8.45,98.16,67a13,13,0,0,1,.63,2c1.88,8.28,11.21,62.63-39,161.08a13.21,13.21,0,0,0-1.45,6.29L670.25,458l.4,19.08"/><path class="cls-2" d="M506.66,439.75s99-63.24,164.12,44.08"/><path class="cls-2" d="M305.75,591.15s-28.8,64.2-5.32,92c18.76,22.23,85.92,14.51,130,6.55l1.12-.21c6.87-1.25,13.12-2.51,18.55-3.65l.51-.11c12.19-2.55,19.88-4.49,19.88-4.49a215.64,215.64,0,0,0,78.63,6.25"/><path class="cls-2" d="M643.08,644.89c17.64-16.93,28.18-35.45,34.07-53.74,0,0,0,0,0,0"/><path class="cls-2" d="M339.13,587.69s-44.92,80.12,15.44,69.58S459,599.78,464.77,576.78s-5.42-26.55-2.71-58.31"/><path class="cls-2" d="M364.82,655.09s-53.37-24.51,13.71-66.74,79.53-16.36,86.24-11.57"/><path class="cls-2" d="M692.6,338.7s71,46.57-22.35,119.33"/><path class="cls-3" d="M677.17,591.12c17.68-54.83-6.39-107.29-6.39-107.29l-.13-6.71S774.54,524.08,677.17,591.12Z"/><path class="cls-2" d="M677.17,591.12s0,0,0,0"/><path class="cls-3" d="M549.14,687.48c29.33-3.06,47.86-11.05,47.86-11.05,19.09-9.39,34.18-20.09,46.08-31.54C643.08,644.89,659.39,736.83,549.14,687.48Z"/><polyline class="cls-2" points="429.95 712.21 451.38 685.59 450.63 685.72 450.13 685.83 431.57 689.48 430.45 689.69 401.6 725.78"/><path class="cls-2" d="M401.2,726.26l.16-.21a1.72,1.72,0,0,1,.24-.27c1.38-1.38,7-5.8,28.35-13.57,26.19-9.58,119.19,7.66,119.19,7.66V687.48"/><ellipse class="cls-2" cx="247.25" cy="226.67" rx="19.8" ry="7.68" transform="translate(-80.21 153.99) rotate(-30)"/><ellipse class="cls-2" cx="221.27" cy="203.62" rx="19.8" ry="7.68" transform="matrix(0.8, -0.6, 0.6, 0.8, -77.85, 172.85)"/><ellipse class="cls-2" cx="588.32" cy="304.54" rx="51.26" ry="27.08" transform="translate(74.94 723.25) rotate(-66.57)"/><path class="cls-2" d="M477.27,250.86c-1.08,2.46,11.55,11.62,18.52,31.74,4.89,14.14,4.8,16.66,19.09-7.78,18.25-31.19,16.14-47.1,2.42-53S486.52,229.64,477.27,250.86Z"/><circle class="cls-2" cx="508.51" cy="242.08" r="7.18"/><circle class="cls-2" cx="601.23" cy="274.78" r="7.18"/><ellipse class="cls-2" cx="590.88" cy="298.65" rx="38.44" ry="20.3" transform="translate(81.89 722.04) rotate(-66.57)"/><path class="cls-2" d="M479.94,254.57c-.89,2,9.51,9.57,15.24,26.13,4,11.64,6.61,11.05,18.38-9.07,15-25.67,13.28-38.76,2-43.66S487.55,237.11,479.94,254.57Z"/></g></svg>