<?xml version="1.0" encoding="utf-8"?>
<!-- Generator: Adobe Illustrator 25.2.1, SVG Export Plug-In . SVG Version: 6.00 Build 0)  -->
<svg version="1.1" id="Calque_1" xmlns="http://www.w3.org/2000/svg" xmlns:xlink="http://www.w3.org/1999/xlink" x="0px" y="0px"
	 viewBox="0 0 639.5 593.9" style="enable-background:new 0 0 639.5 593.9;" xml:space="preserve">
<style type="text/css">
	.st0{fill:#D864D8;}
	.st1{fill:none;stroke:#EEF0F2;stroke-width:5;stroke-miterlimit:10;}
	.st2{fill:#D864D8;stroke:#EEF0F2;stroke-width:5;stroke-miterlimit:10;}
</style>
<g id="Calque_4">
	<path class="st0" d="M631.5,274.3c-17.8,35.9-42.6,47.4-42.6,47.4l-1.8-58.4v-2l20-47.1l3.6-9.4
		C610.8,204.7,651.7,233.5,631.5,274.3z"/>
</g>
<g id="Calque_3">
	<circle class="st1" cx="218.6" cy="241.2" r="216.1"/>
	<path class="st1" d="M375.6,92.8c0,0,44.6-75.3,79.2-59.1c0,0,20.1,5.8,19.2,46"/>
	<path class="st1" d="M424.6,167.9c-5.1,13,51.6-124.4,91.5-115.1c45,10.5,29.7,129.4-6.7,181.1c0,0-44.3,15.4-75.8-14.4"/>
	<path class="st1" d="M407,52.2c0,0,14-49.7,75.9-49.7c0,0,29.4,2.4,44.7,22.6"/>
	<path class="st1" d="M474,66.3c0,0,17.2-28.6,35.4-34.9l17.3-6c0.7-0.2,1.4-0.4,2.1-0.5c8.9-1.5,68-8.4,98.2,67
		c0.3,0.6,0.5,1.3,0.6,2c1.9,8.3,11.2,62.6-39,161.1c-1,1.9-1.5,4.1-1.5,6.3l1.3,62.9l0.4,19.1"/>
	<path class="st1" d="M424.8,305.8c0,0,99-63.2,164.1,44.1"/>
	<path class="st1" d="M223.9,457.2c0,0-28.8,64.2-5.3,92c18.8,22.2,85.9,14.5,130,6.5l1.1-0.2c6.9-1.2,13.1-2.5,18.5-3.7l0.5-0.1
		c12.2-2.5,19.9-4.5,19.9-4.5c25.6,6.9,52.3,9,78.6,6.2"/>
	<path class="st1" d="M561.2,511c17.6-16.9,28.2-35.5,34.1-53.7l0,0"/>
	<path class="st1" d="M257.3,453.8c0,0-44.9,80.1,15.4,69.6s104.4-57.5,110.2-80.5c5.8-23-5.4-26.5-2.7-58.3"/>
	<path class="st1" d="M283,521.2c0,0-53.4-24.5,13.7-66.7s79.5-16.4,86.2-11.6"/>
	<path class="st1" d="M610.8,204.8c0,0,71,46.6-22.3,119.3"/>
	<path class="st2" d="M595.3,457.2c17.7-54.8-6.4-107.3-6.4-107.3l-0.1-6.7C588.8,343.2,692.7,390.2,595.3,457.2z"/>
	<path class="st1" d="M595.3,457.2L595.3,457.2"/>
	<path class="st2" d="M467.3,553.6c29.3-3.1,47.9-11,47.9-11c19.1-9.4,34.2-20.1,46.1-31.5C561.2,511,577.5,602.9,467.3,553.6z"/>
	<polyline class="st1" points="348.1,578.3 369.5,551.7 368.8,551.8 368.3,551.9 349.7,555.6 348.6,555.8 319.8,591.9 	"/>
	<path class="st1" d="M319.4,592.3l0.2-0.2c0.1-0.1,0.2-0.2,0.2-0.3c1.4-1.4,7-5.8,28.4-13.6c26.2-9.6,119.2,7.7,119.2,7.7v-32.4"/>
	<ellipse transform="matrix(0.866 -0.5 0.5 0.866 -24.2141 95.1256)" class="st1" cx="165.4" cy="92.7" rx="19.8" ry="7.7"/>
	<ellipse transform="matrix(0.8 -0.6 0.6 0.8 -13.5408 97.5056)" class="st1" cx="139.5" cy="69.1" rx="19.8" ry="7.7"/>
	
		<ellipse transform="matrix(0.3976 -0.9175 0.9175 0.3976 148.5274 567.4659)" class="st1" cx="506.5" cy="170.6" rx="51.3" ry="27.1"/>
	<path class="st1" d="M395.4,116.9c-1.1,2.5,11.5,11.6,18.5,31.7c4.9,14.1,4.8,16.7,19.1-7.8c18.2-31.2,16.1-47.1,2.4-53
		S404.7,95.7,395.4,116.9z"/>
	<circle class="st1" cx="426.7" cy="108.2" r="7.2"/>
	<circle class="st1" cx="519.4" cy="140.9" r="7.2"/>
	
		<ellipse transform="matrix(0.3976 -0.9175 0.9175 0.3976 155.4861 566.2635)" class="st1" cx="509" cy="164.7" rx="38.4" ry="20.3"/>
	<path class="st1" d="M398.1,120.7c-0.9,2,9.5,9.6,15.2,26.1c4,11.6,6.6,11,18.4-9.1c15-25.7,13.3-38.8,2-43.7
		S405.7,103.2,398.1,120.7z"/>
</g>
</svg>
